<svg width="37" height="45" fill="none" xmlns="http://www.w3.org/2000/svg"><path d="M0 32.946v3.215a2.34 2.34 0 001.607 2.25v2.571A3.979 3.979 0 005.625 45h27.321a3.979 3.979 0 004.018-4.018V10.446c0-.08 0-.24-.08-.321 0-.08-.08-.16-.16-.241L27.08.24c-.08-.08-.16-.16-.24-.16-.082-.08-.243-.08-.323-.08H5.625a3.979 3.979 0 00-4.018 4.018v2.571C.643 6.911 0 7.875 0 8.84v3.215a2.34 2.34 0 001.607 2.25v16.392A2.34 2.34 0 000 32.946zm1.607 0c0-.482.322-.803.804-.803h2.41v4.821h-2.41c-.482 0-.804-.321-.804-.803v-3.215zM27.321 2.732l6.911 6.91h-6.91v-6.91zM5.625 1.607h20.09v8.84c0 .482.32.803.803.803h8.84v29.732c0 1.366-1.045 2.41-2.412 2.41H5.625c-1.366 0-2.41-1.044-2.41-2.41v-2.41h2.41c.482 0 .804-.322.804-.804v-6.429c0-.482-.322-.803-.804-.803h-2.41V14.464h2.41c.482 0 .804-.321.804-.803V7.232c0-.482-.322-.803-.804-.803h-2.41V4.018c0-1.366 1.044-2.41 2.41-2.41zM1.607 8.84c0-.482.322-.803.804-.803h2.41v4.821h-2.41c-.482 0-.804-.321-.804-.803V8.839z" fill="#272833"/><path d="M14.464 18.482h2.41v2.41c0 .483.322.804.805.804h3.214c.482 0 .803-.321.803-.803v-2.411h2.411c.482 0 .804-.321.804-.804v-3.214c0-.482-.322-.803-.804-.803h-2.41V11.25c0-.482-.322-.804-.804-.804h-3.215c-.482 0-.803.322-.803.804v2.41h-2.41c-.483 0-.804.322-.804.804v3.214c0 .483.321.804.803.804zm.804-3.214h2.41c.483 0 .804-.322.804-.804v-2.41h1.607v2.41c0 .482.322.804.804.804h2.41v1.607h-2.41c-.482 0-.804.321-.804.803v2.411h-1.607v-2.41c0-.483-.321-.804-.803-.804h-2.411v-1.607zM11.25 24.91h16.07c.482 0 .804-.32.804-.803 0-.482-.322-.803-.804-.803H11.25c-.482 0-.804.321-.804.803 0 .482.322.804.804.804zm0 3.215h16.07c.482 0 .804-.322.804-.804 0-.482-.322-.803-.804-.803H11.25c-.482 0-.804.321-.804.803 0 .482.322.804.804.804zm0 3.215h16.07c.482 0 .804-.322.804-.804 0-.482-.322-.804-.804-.804H11.25c-.482 0-.804.322-.804.804 0 .482.322.804.804.804zm0 3.213h16.07c.482 0 .804-.321.804-.803 0-.482-.322-.804-.804-.804H11.25c-.482 0-.804.322-.804.804 0 .482.322.803.804.803z" fill="#5B5D77"/></svg>