<svg width="48" height="45" fill="none" xmlns="http://www.w3.org/2000/svg"><path d="M44.5 4.915C44.465 2.446 43.614 0 42.018 0c-1.572 0-2.436 2.496-2.475 4.905h-4.186C35.32 2.44 34.47 0 32.876 0c-1.59 0-2.438 2.44-2.475 4.905h-4.187C26.177 2.44 25.328 0 23.738 0c-1.593 0-2.443 2.44-2.48 4.905H17.07C17.034 2.44 16.186 0 14.596 0s-2.438 2.44-2.476 4.905H7.93C7.89 2.44 7.043 0 5.453 0c-1.592 0-2.44 2.446-2.475 4.915A3.21 3.21 0 000 8.112v33.68A3.21 3.21 0 003.206 45h41.06a3.21 3.21 0 003.205-3.207V8.113a3.21 3.21 0 00-2.97-3.198zM42.02 1.16c.514 0 1.284 1.487 1.321 3.745h-2.637c.038-2.424.879-3.745 1.316-3.745zm-9.143 0c.514 0 1.284 1.487 1.321 3.745h-2.636c.038-2.424.878-3.745 1.315-3.745zm-9.137 0c.437 0 1.277 1.32 1.315 3.745h-2.636c.037-2.258.807-3.745 1.32-3.745zm-9.143 0c.437 0 1.278 1.32 1.316 3.745H13.28c.037-2.258.803-3.745 1.315-3.745zm-9.143 0c.437 0 1.277 1.32 1.315 3.745h-2.63c.036-2.258.803-3.745 1.315-3.745zM3.206 6.066h3.516c-.187 1.9-.885 2.925-1.27 2.925a.58.58 0 100 1.16c1.413 0 2.24-1.926 2.434-4.085h7.98c-.188 1.9-.886 2.925-1.27 2.925a.58.58 0 100 1.16c1.412 0 2.24-1.926 2.433-4.085h7.979c-.187 1.9-.885 2.925-1.27 2.925a.58.58 0 100 1.16c1.413 0 2.24-1.926 2.433-4.085h7.979c-.181 1.791-.825 2.925-1.274 2.925a.58.58 0 100 1.16c1.416 0 2.245-1.926 2.439-4.085h7.978c-.181 1.791-.825 2.925-1.275 2.925a.58.58 0 100 1.16c1.415 0 2.244-1.92 2.439-4.075a2.049 2.049 0 011.854 2.037v4.259H1.16v-4.26c0-1.128.918-2.046 2.046-2.046zm41.06 37.774H3.205a2.049 2.049 0 01-2.046-2.047V13.53h45.152v28.262a2.05 2.05 0 01-2.046 2.047z" fill="#272833"/><path d="M10.433 16.385H5.717c-.698 0-1.266.568-1.266 1.267v4.46c0 .699.568 1.267 1.266 1.267h4.716a1.27 1.27 0 001.267-1.267v-4.46a1.27 1.27 0 00-1.267-1.267zm.107 5.727a.11.11 0 01-.107.107H5.717a.11.11 0 01-.106-.107v-4.46c0-.059.048-.107.106-.107h4.716c.059 0 .107.048.107.107v4.46zm10.331-5.727h-4.71c-.698 0-1.267.568-1.267 1.267v4.46c0 .699.569 1.267 1.267 1.267h4.71c.699 0 1.267-.569 1.267-1.267v-4.46c0-.698-.568-1.267-1.267-1.267zm.107 5.727a.11.11 0 01-.107.107h-4.71a.11.11 0 01-.106-.107v-4.46c0-.059.048-.107.106-.107h4.71c.06 0 .107.048.107.107v4.46zm10.337 1.266c.698 0 1.267-.568 1.267-1.267v-4.46c0-.698-.569-1.266-1.267-1.266h-4.716c-.699 0-1.267.568-1.267 1.267v4.46c0 .698.568 1.266 1.267 1.266h4.716zm-4.823-1.266v-4.46c0-.059.048-.107.107-.107h4.716c.056 0 .107.052.107.108v4.46c0 .052-.054.106-.107.106h-4.716a.112.112 0 01-.107-.107zm15.262-5.727h-4.71c-.699 0-1.267.568-1.267 1.267v4.46c0 .699.568 1.267 1.267 1.267h4.71c.698 0 1.266-.569 1.266-1.267v-4.46c0-.698-.568-1.267-1.266-1.267zm.106 5.727a.11.11 0 01-.106.107h-4.71a.11.11 0 01-.107-.107v-4.46c0-.059.048-.107.107-.107h4.71c.059 0 .106.048.106.107v4.46zM10.433 25.19H5.717c-.698 0-1.266.568-1.266 1.266v4.46c0 .695.568 1.261 1.266 1.261h4.716c.698 0 1.267-.566 1.267-1.261v-4.46a1.27 1.27 0 00-1.267-1.267zm.107 5.726c0 .054-.049.101-.107.101H5.717a.104.104 0 01-.106-.101v-4.46c0-.06.047-.107.106-.107h4.716c.06 0 .107.047.107.107v4.46zm10.331-5.726h-4.71c-.698 0-1.267.568-1.267 1.266v4.46c0 .695.569 1.261 1.267 1.261h4.71c.699 0 1.267-.566 1.267-1.261v-4.46c0-.698-.568-1.267-1.267-1.267zm.107 5.726c0 .054-.049.101-.107.101h-4.71a.104.104 0 01-.106-.101v-4.46c0-.06.047-.107.106-.107h4.71c.06 0 .107.049.107.107v4.46zm-10.545 3.076H5.717c-.698 0-1.266.566-1.266 1.261v4.46c0 .698.568 1.266 1.266 1.266h4.716c.698 0 1.267-.568 1.267-1.267v-4.459c0-.695-.569-1.26-1.267-1.26zm.107 5.72c0 .06-.047.107-.107.107H5.717a.107.107 0 01-.106-.107v-4.459c0-.054.048-.1.106-.1h4.716c.058 0 .107.046.107.1v4.46zm10.331-5.72h-4.71c-.698 0-1.267.566-1.267 1.261v4.46c0 .698.569 1.266 1.267 1.266h4.71c.699 0 1.267-.568 1.267-1.267v-4.459c0-.695-.568-1.26-1.267-1.26zm.107 5.72a.107.107 0 01-.107.107h-4.71a.107.107 0 01-.106-.107v-4.459c0-.054.048-.1.106-.1h4.71c.058 0 .107.046.107.1v4.46z" fill="#5B5D77"/><path d="M33.7 24.93c-4.398 0-7.976 3.58-7.976 7.98s3.578 7.98 7.976 7.98c4.4 0 7.977-3.58 7.977-7.98S38.1 24.93 33.7 24.93zm0 14.8c-3.758 0-6.816-3.06-6.816-6.82 0-3.761 3.058-6.82 6.816-6.82 3.76 0 6.817 3.059 6.817 6.82 0 3.76-3.058 6.82-6.817 6.82z" fill="#272833"/><path d="M36.524 29.836l-4.788 4.791-.773-1.344a.58.58 0 00-1.006.579l1.15 2a.58.58 0 00.914.122l5.324-5.328a.58.58 0 00-.82-.82z" fill="#5B5D77"/></svg>