<svg width="46" height="45" fill="none" xmlns="http://www.w3.org/2000/svg"><path d="M33 21a11.96 11.96 0 00-8.625 3.675L21.733 22.5l3.6-2.953a8.811 8.811 0 003.167-6.849V7.5a3 3 0 003-3v-3A1.499 1.499 0 0030 0H1.5A1.498 1.498 0 000 1.5v3a3 3 0 003 3v5.196a8.79 8.79 0 003.172 6.85L9.768 22.5l-3.596 2.955A8.79 8.79 0 003 32.305V37.5a3 3 0 00-3 3v3A1.498 1.498 0 001.5 45H30c.267-.004.528-.079.756-.218a12.002 12.002 0 0014.222-10.655A12.001 12.001 0 0033 21zM1.5 4.5v-3H30v3A1.5 1.5 0 0128.5 6H3a1.5 1.5 0 01-1.5-1.5zm6.75 3h15v3.887a3.27 3.27 0 01-1.176 2.563l-5.424 4.47a1.386 1.386 0 01-1.805 0l-5.426-4.476a3.268 3.268 0 01-1.17-2.557L8.25 7.5zM4.5 32.305a7.397 7.397 0 012.625-5.692l4.301-3.533a.75.75 0 000-1.158l-4.3-3.535a7.395 7.395 0 01-2.626-5.69V7.5h2.25v3.886a4.762 4.762 0 001.72 3.717l5.422 4.472a2.889 2.889 0 003.716 0l5.417-4.468a4.764 4.764 0 001.725-3.72V7.5H27v5.197a7.313 7.313 0 01-2.621 5.69l-4.304 3.533a.75.75 0 000 1.16l3.335 2.738a11.966 11.966 0 00-1.65 3.027l-4.153-3.42a2.889 2.889 0 00-3.714 0l-5.418 4.469a4.781 4.781 0 00-1.725 3.721V37.5H4.5v-5.195zM21.884 37.5H8.25v-3.885a3.29 3.29 0 011.174-2.565l5.426-4.468a1.405 1.405 0 011.806 0l4.638 3.825a11.837 11.837 0 00.59 7.093zM1.5 43.5v-3A1.5 1.5 0 013 39h19.624a12.08 12.08 0 004.58 4.5H1.5zm31.5 0A10.501 10.501 0 1143.5 33 10.51 10.51 0 0133 43.5z" fill="#272833"/><path d="M36 32.25h-.888a2.25 2.25 0 00-1.362-1.361V28.5a.75.75 0 10-1.5 0v2.388a2.246 2.246 0 102.862 2.862H36a.75.75 0 100-1.5zm-3 1.5a.75.75 0 110-1.5.75.75 0 010 1.5zm0-7.5a.75.75 0 00.75-.75v-.75a.75.75 0 10-1.5 0v.75a.75.75 0 00.75.75zm-5.304.387a.75.75 0 00-1.06 1.06l.53.53a.75.75 0 001.06-1.06l-.53-.53zM25.5 32.25h-.75a.75.75 0 000 1.5h.75a.75.75 0 100-1.5zm1.666 5.524l-.53.53a.749.749 0 00.528 1.29.75.75 0 00.533-.23l.53-.53a.75.75 0 00-1.06-1.06zM33 39.75a.75.75 0 00-.75.75v.75a.75.75 0 001.5 0v-.75a.75.75 0 00-.75-.75zm5.833-1.976a.75.75 0 00-1.06 1.06l.53.53a.75.75 0 001.06-1.06l-.53-.53zM39.75 33a.75.75 0 00.75.75h.75a.75.75 0 100-1.5h-.75a.75.75 0 00-.75.75zm-1.447-6.363l-.53.53a.75.75 0 101.06 1.06l.53-.53a.75.75 0 00-1.06-1.06z" fill="#5B5D77"/></svg>