<svg width="45" height="45" fill="none" xmlns="http://www.w3.org/2000/svg"><path d="M19.57 30.155c-3.036-1.228-5.252-3.888-5.252-7.655 0-4.474 3.675-8.182 8.182-8.182 4.522 0 8.182 3.68 8.182 8.182 0 3.377-2.137 6.584-5.356 7.63a1.023 1.023 0 10.633 1.946c4.095-1.332 6.768-5.344 6.768-9.576 0-5.628-4.573-10.227-10.227-10.227-5.64 0-10.227 4.627-10.227 10.227 0 4.694 2.783 8.036 6.53 9.551a1.022 1.022 0 10.767-1.896z" fill="#5B5D77"/><path d="M22.5 45C34.926 45 45 34.927 45 22.5S34.927 0 22.5 0 0 10.073 0 22.5 10.073 45 22.5 45zm0-2.046c-11.297 0-20.454-9.157-20.454-20.454S11.203 2.046 22.5 2.046 42.954 11.203 42.954 22.5 33.797 42.954 22.5 42.954z" fill="#272833"/><path d="M8.056 42.953C7.486 38.783 6.818 36.03 6 34.61a1.023 1.023 0 00-1.773 1.021c.695 1.207 1.356 4.067 1.918 8.475.065.511.5.894 1.014.894H37.84c.515 0 .95-.383 1.015-.894.562-4.408 1.222-7.268 1.917-8.475A1.023 1.023 0 0039 34.61c-.818 1.42-1.485 4.173-2.055 8.343H8.056z" fill="#272833"/><path d="M17.52 37.462l.218-.378c.5-.874.67-1.39.67-2.31v-4.091c0-.434-.114-.685-.495-1.161l-.303-.374c-.847-1.058-1.247-2.024-1.247-3.579 0-.698.684-1.19 1.346-.97 2.858.953 6.722.953 9.58 0a1.022 1.022 0 011.347.97c0 1.555-.4 2.52-1.247 3.58l-.303.373c-.38.476-.496.727-.496 1.16v4.092c0 .92.171 1.436.67 2.31l.218.378c.792 1.386 1.145 2.509 1.157 4.364.084.466.076 1.178-.002 2.228-.04.534-.485.947-1.02.947H17.386c-.535 0-.98-.413-1.02-.947-.078-1.05-.086-1.762-.002-2.227.012-1.856.365-2.979 1.157-4.365zm1.687-9.592l.303.374c.644.805.944 1.46.944 2.439v4.09c0 1.326-.279 2.168-.94 3.325l-.218.379c-.641 1.123-.887 1.923-.887 3.456l-.031.247c-.026.103-.036.37-.024.775h8.29c.013-.404.003-.672-.023-.775l-.03-.248c0-1.532-.247-2.332-.889-3.455l-.217-.379c-.662-1.157-.94-1.999-.94-3.325v-4.09c0-.978.3-1.634.944-2.44l.302-.372c.255-.319.44-.6.568-.905-2.458.524-5.261.524-7.72 0 .129.305.314.586.568.904z" fill="#272833"/><path d="M19.78 34.5c-6.034-1.58-9.553-6.523-9.553-12 0-6.712 5.466-12.272 12.273-12.272 6.804 0 12.272 5.561 12.272 12.272 0 5.5-3.439 10.31-9.526 12.005l.549 1.97c6.996-1.947 11.023-7.58 11.023-13.975 0-7.833-6.376-14.317-14.318-14.317-7.944 0-14.317 6.483-14.317 14.317 0 6.376 4.112 12.155 11.08 13.979l.516-1.979z" fill="#272833"/><path d="M10.171 11.722c1.376-1.593 3.318-3.08 5.369-4.031a1.023 1.023 0 10-.86-1.856c-2.32 1.076-4.495 2.742-6.057 4.55a1.023 1.023 0 001.548 1.337zm9.202-5.299c1.934-.372 4.28-.373 6.24-.003a1.023 1.023 0 00.38-2.01c-2.212-.418-4.818-.416-7.006.005a1.023 1.023 0 00.386 2.008zM29.44 7.684c1.93.928 4.109 2.552 5.366 4.022a1.023 1.023 0 001.555-1.33c-1.45-1.694-3.858-3.488-6.033-4.535a1.022 1.022 0 10-.887 1.843z" fill="#5B5D77"/></svg>