<svg width="45" height="45" fill="none" xmlns="http://www.w3.org/2000/svg"><path d="M22.498 4.287c-10.047 0-18.21 8.168-18.21 18.215s8.163 18.21 18.21 18.21 18.215-8.163 18.215-18.21S32.545 4.287 22.498 4.287zm0 2.144c8.889 0 16.071 7.182 16.071 16.07 0 8.89-7.182 16.072-16.07 16.072-8.89 0-16.072-7.183-16.072-16.071 0-8.889 7.182-16.071 16.071-16.071z" fill="#272833"/><path d="M22.5 0a1.071 1.071 0 100 2.143c11.255 0 20.357 9.101 20.357 20.357 0 11.256-9.101 20.357-20.357 20.357a1.071 1.071 0 100 2.143C34.913 45 45 34.914 45 22.5 45 10.087 34.913 0 22.5 0zM2.143 22.5A1.071 1.071 0 110 22.5a1.071 1.071 0 012.143 0zM17.232 2.835a1.072 1.072 0 11-.554-2.072 1.072 1.072 0 01.554 2.072zm-4.91 2.033a1.072 1.072 0 11-1.071-1.856 1.072 1.072 0 011.071 1.856zM8.107 8.104A1.072 1.072 0 116.59 6.588a1.072 1.072 0 011.516 1.516zM4.871 12.32a1.072 1.072 0 11-1.856-1.071 1.072 1.072 0 011.856 1.072zm-2.034 4.91a1.072 1.072 0 11-2.07-.553 1.072 1.072 0 012.07.553zm0 10.54a1.072 1.072 0 11-2.071.555 1.072 1.072 0 012.071-.555zm2.034 4.909a1.072 1.072 0 11-1.857 1.07 1.072 1.072 0 011.857-1.07zm3.236 4.216A1.072 1.072 0 116.59 38.41a1.072 1.072 0 011.517-1.515zm4.215 3.235a1.071 1.071 0 11-1.07 1.856 1.071 1.071 0 011.07-1.856zm4.91 2.034a1.071 1.071 0 11-.555 2.07 1.071 1.071 0 01.555-2.07z" fill="#5B5D77"/><path d="M22.483 8.558a1.072 1.072 0 00-1.056 1.083v12.861c.001.283.115.555.316.755l6.426 6.43a1.072 1.072 0 101.52-1.515l-6.119-6.117V9.64a1.072 1.072 0 00-1.087-1.083z" fill="#5B5D77"/></svg>