<svg width="35" height="45" fill="none" xmlns="http://www.w3.org/2000/svg"><g clip-path="url(#clip0_330_8235)" stroke-width="1.5" stroke-miterlimit="10" stroke-linecap="round" stroke-linejoin="round"><path d="M33.6 13.705v29.097c0 .648-.525 1.175-1.174 1.175H2.27a1.175 1.175 0 01-1.174-1.175V2.112c0-.649.526-1.175 1.174-1.175h18.561" stroke="#272833"/><path d="M33.6 13.705H22.008a1.175 1.175 0 01-1.175-1.175V.937l12.769 12.768z" stroke="#272833"/><path d="M28.816 30.672a5.81 5.81 0 11-11.62 0 5.81 5.81 0 0111.62 0zm-9.918 4.108l-6.05 6.05M5.112 7.32h10.872M5.112 13.664h10.872M5.112 20.006H26.52m-7.378 6.343H5.109m.003 5.745h12.263" stroke="#5B5D77"/></g><defs><clipPath id="clip0_330_8235"><path fill="#fff" d="M0 0h34.609v45H0z"/></clipPath></defs></svg>