<svg width="45" height="45" fill="none" xmlns="http://www.w3.org/2000/svg"><path d="M44.374 16.2H41.63a21.469 21.469 0 00-.624-4.685c-.15-.57-.647-.965-1.213-.961h-2.469c-1.585-4.176-4.71-7.51-8.671-9.249a15.35 15.35 0 00-12.387 0c-3.962 1.74-7.087 5.073-8.672 9.249H5.15c-.57-.006-1.07.392-1.219.967-.38 1.53-.59 3.1-.625 4.68H.626a.64.64 0 00-.626.653V36.23a5.773 5.773 0 001.58 3.981 5.28 5.28 0 003.808 1.652h5.137c-.02.15-.03.3-.031.45v1.432c.003.694.542 1.255 1.206 1.255h21.6c.664 0 1.203-.561 1.206-1.255v-1.418c.01-.15.01-.3 0-.45h5.138a5.28 5.28 0 003.791-1.669A5.777 5.777 0 0045 36.23V16.854a.668.668 0 00-.183-.462.612.612 0 00-.442-.192zm-6.143-2.268a3.702 3.702 0 00-.063-.379c0-.123-.044-.248-.081-.405-.038-.156-.038-.202-.063-.294l-.112-.483c-.05-.17-.094-.34-.144-.51h2.013c.407 1.59.617 3.229.625 4.875v.124c-.03 4.214-1.415 8.295-3.932 11.587l-.419.548h-.162l-.725-2.11c.137-.19.262-.386.394-.582l.25-.366c.174-.274.337-.562.493-.843.063-.117.132-.222.194-.34.163-.307.306-.653.45-.947.044-.092.094-.183.131-.281.156-.36.294-.732.425-1.098l.063-.176c.293-.877.515-1.777.663-2.693v-.098c.062-.414.112-.832.15-1.255v-2.418c0-.242 0-.484-.05-.726-.05-.241-.044-.405-.07-.595v.001l-.05-.352c.038-.066.032-.105.02-.184zm-7.607 25.05h-16.25v-1h16.25v1zM29.1 36.673H15.88v-3.019h13.24l-.02 3.02zm.625-4.326H10.13c-.604 0-1.094-.512-1.094-1.143v-.856c0-.032.013-.061.038-.079h.031v-.033H35.85c.02.021.034.05.038.08v.836c0 .304-.117.596-.323.81a1.07 1.07 0 01-.777.333l-5.062.052zM13.437 16.724c0-3.372 1.72-6.487 4.512-8.173a8.686 8.686 0 019.025 0c2.793 1.686 4.513 4.801 4.513 8.173a9.7 9.7 0 01-.094 1.359H13.525a9.716 9.716 0 01-.088-1.36zm-2.394 10.253l1.313-3.869 1.03-3.045.226-.654h17.687l1.25 3.706 1.313 3.875.625 1.843.044.124H10.374l.67-1.96v-.02zm22.269-7.561l-.275 1.176-.537-1.601c.16-.744.242-1.505.243-2.267.008-3.054-1.227-5.966-3.395-8.01-2.17-2.044-5.067-3.027-7.97-2.702-2.904.324-5.538 1.924-7.245 4.4-1.707 2.477-2.326 5.597-1.702 8.579l-.556 1.602-.269-1.177a11.837 11.837 0 01-.306-2.686c.093-4.1 2.239-7.85 5.651-9.872a10.733 10.733 0 0111.003 0c3.413 2.023 5.559 5.771 5.652 9.872a11.83 11.83 0 01-.294 2.686zm-10.85-18.11c3.51.006 6.902 1.318 9.57 3.7 2.669 2.384 4.438 5.682 4.992 9.306a1.27 1.27 0 000 .163c.063.47.113.948.138 1.431v1.065c0 .36 0 .713-.05 1.059 0 .15 0 .3-.05.45-.025.249-.057.497-.094.745 0 .183-.063.366-.094.543a18.4 18.4 0 01-.131.654c-.05.228-.094.392-.15.581-.056.19-.107.379-.169.569-.062.19-.125.398-.194.595-.068.195-.137.352-.206.529-.069.176-.156.392-.243.581-.088.19-.163.34-.244.504-.081.163-.188.385-.287.575l-.288.49c-.112.183-.212.366-.331.542l-.862-2.548.725-3.11c.226-.983.34-1.99.337-3 .008-3.71-1.501-7.245-4.149-9.714-2.647-2.469-6.179-3.635-9.702-3.203-3.523.432-6.702 2.42-8.73 5.463-2.03 3.042-2.717 6.847-1.888 10.453l.725 3.11-.862 2.55c-.1-.164-.2-.327-.294-.497-.094-.17-.22-.353-.319-.536-.1-.183-.187-.367-.275-.55-.088-.182-.175-.346-.256-.529a19.274 19.274 0 01-.45-1.118 19.45 19.45 0 01-.194-.568 8.291 8.291 0 01-.169-.595c-.05-.202-.1-.366-.144-.555-.043-.19-.093-.438-.137-.654a8.131 8.131 0 01-.094-.523 42.882 42.882 0 01-.1-.777c0-.138-.03-.275-.043-.412 0-.372-.044-.752-.05-1.13v-1.06c0-.463.069-.927.137-1.384v-.164c.55-3.638 2.327-6.952 5.008-9.341 2.682-2.39 6.094-3.698 9.617-3.689zM4.525 16.73c0-1.645.21-3.283.625-4.869h2c-.05.17-.094.346-.144.523l-.113.464c0 .098-.043.196-.069.333-.024.137-.05.23-.074.379-.025.15-.044.242-.063.36-.019.117 0 .13 0 .195v.17a1.702 1.702 0 000 .177c0 .196-.05.392-.075.607-.025.216-.037.478-.05.713v.934a1.465 1.465 0 000 .164v.477c0 .288 0 .569.038.85.037.28.075.614.112.921 0 .144.031.288.056.431.07.456.162.907.275 1.353v.078c.107.419.225.83.363 1.242l.1.261c.118.34.243.654.38 1.013.05.111.107.222.163.34.131.3.269.595.425.889.069.124.144.248.212.379.15.268.307.536.476.803.08.131.174.261.268.399.094.137.244.372.375.555L9.1 28.95h-.157l-.419-.55a14.18 14.18 0 01-.887-1.26h.001a19.392 19.392 0 01-3.044-10.326l-.068-.084zM1.25 36.23V17.509h2.038c0 .19 0 .372.043.556.044.182.031.497.056.744.025.249.07.595.113.89.043.293.069.49.112.732.044.241.119.587.188.881.069.295.1.478.162.713.063.235.17.582.257.87.087.287.137.457.219.653.08.196.218.582.33.87l.257.653c.088.222.281.588.425.876.144.287.182.392.282.581.174.314.362.654.55.928.087.157.175.314.268.465.294.45.625.895.931 1.306l.42.543-.001-.002a1.359 1.359 0 00-.057.17v.092c-.023.098-.033.2-.031.3v.837c0 .65.247 1.273.687 1.733a2.29 2.29 0 001.657.718h4.5v3.019h-.906a.64.64 0 00-.626.653v1.752h-.087a3.48 3.48 0 00-.469.144l-.125.052c-.179.079-.35.175-.512.288l-.088.065a3.195 3.195 0 00-.38.34c0 .039-.07.072-.1.104h-.001a3.522 3.522 0 00-.362.49H5.387a4.054 4.054 0 01-2.913-1.257 4.432 4.432 0 01-1.224-3.036zm32.005 7.477H11.743v-1.38a2.04 2.04 0 01.175-.836 2.03 2.03 0 01.743-.889 1.903 1.903 0 011.088-.313h17.556c.094-.01.188-.01.282 0 .657.1 1.22.543 1.493 1.176.117.262.176.548.175.837v1.405zm10.493-7.476a4.433 4.433 0 01-1.213 3.057 4.055 4.055 0 01-2.924 1.269h-5.587a3.478 3.478 0 00-.363-.49l-.093-.092a3.04 3.04 0 00-.4-.36l-.044-.052a3.54 3.54 0 00-.55-.307h-.037a3.582 3.582 0 00-.582-.182h-.081v-1.745a.67.67 0 00-.183-.463.611.611 0 00-.442-.191h-.881v-3.02h4.419c.622 0 1.219-.257 1.659-.717.44-.459.689-1.082.69-1.733v-.856c.01-.1.01-.2 0-.3 0 0 0-.06-.03-.092-.032-.033 0-.118-.051-.17l.412-.549c.332-.425.626-.87.932-1.307.093-.15.18-.307.275-.464.187-.307.375-.614.543-.928.1-.19.188-.386.282-.575.143-.294.293-.582.424-.882.132-.3.17-.425.257-.654.087-.229.23-.582.337-.882.107-.3.138-.444.206-.654a14.16 14.16 0 00.426-1.588c.05-.235.137-.595.187-.895.05-.3.075-.477.113-.72.037-.24.087-.594.112-.9.025-.308.044-.49.056-.733.013-.242.038-.372.044-.562h2.088v18.737z" fill="#5B5D77"/></svg>