<svg width="43" height="45" fill="none" xmlns="http://www.w3.org/2000/svg"><path d="M42.07 12.432c-.723-3.512-2.616-5.663-3.387-6.415a11.26 11.26 0 00-8.063-3.38c-3.046 0-5.91 1.2-8.063 3.38-3.065 3.102-4.102 7.487-2.61 10.967-.054.138-.227.392-.347.569a6.098 6.098 0 00-.503.834c-.768-4.025-3.532-5.428-5.787-6.57-2.186-1.107-3.913-1.98-4.055-4.732-.08-1.54.328-2.775 1.21-3.67 1.956-1.981 5.637-1.82 5.696-1.817a.79.79 0 00.827-.752.792.792 0 00-.742-.838c-.181-.01-4.424-.212-6.887 2.276-1.215 1.227-1.779 2.87-1.674 4.883.19 3.678 2.595 4.896 4.92 6.073 1.95.986 3.81 1.93 4.655 4.335-.099-.047-.195-.096-.298-.137-2.426-.95-5.6-.115-7.908.795-.386-.952-1.22-1.661-2.011-2.056-.973-.486-1.89-.521-2.46-.088C1.935 18.133.291 21.554.034 23.877c-.104.95.03 1.658.401 2.107.668.808 1.424 1.07 2.163 1.07.824 0 1.624-.326 2.255-.582.235-.096.457-.186.66-.254.586-.197 1.809-.025 2.802.202-2.382 2.49-3.77 4.583-4.123 6.224-.81 2.725-.415 6.692 2.29 9.445C7.932 43.566 10.358 45 14.301 45c1.863 0 4.067-.32 6.668-1.108 5.275-1.624 12.385-5.227 16.523-10.47l.024-.031c2.376-3.34 2.31-5.744 2.245-8.07-.028-.986-.053-1.919.114-2.916 1.952-4.2 2.826-6.907 2.194-9.974zm-3.663 9.388a.823.823 0 00-.062.198c-.216 1.2-.186 2.291-.156 3.348.06 2.15.116 4.183-1.938 7.078-3.92 4.955-10.926 8.442-15.737 9.923-7.35 2.227-11.082.468-12.918-1.401-2.257-2.297-2.576-5.619-1.89-7.89a.854.854 0 00.017-.07c.593-2.872 5.722-7.563 7.648-9.128a.802.802 0 00.121-1.119.78.78 0 00-1.105-.122 48.65 48.65 0 00-2.774 2.48H9.61c-.313-.095-3.107-.912-4.597-.407-.247.083-.501.186-.748.287-1.352.55-2.008.712-2.62-.025-.392-.627.6-5.052 3.857-7.59.157-.03.703.064 1.295.5.206.152.617.502.805.977a21.46 21.46 0 00-1.59.82.802.802 0 00-.289 1.087.782.782 0 001.075.292 19.76 19.76 0 012.032-1.01c2.245-.975 5.45-1.951 7.562-1.123.911.357 1.556 1.018 1.962 2.013-1.011.969-1.797 2.371-2.103 3.833-.303 1.445-.1 2.775.568 3.745.168.244.387.466.647.67l-3.153 6.693a.8.8 0 00.371 1.061.786.786 0 001.048-.376l3.111-6.604c3.039 1.274 8.096 1.4 9.96 1.4.291 0 .505-.003.62-.005a.791.791 0 00.772-.81.79.79 0 00-.8-.782c-3.19.057-8.294-.314-10.455-1.482a.753.753 0 00-.137-.085c-.012-.006-.025-.008-.036-.013-.289-.175-.513-.367-.658-.578-.417-.605-.53-1.494-.32-2.503.304-1.45 1.229-2.865 2.284-3.512.237-.152.525-.221 1-.325.022.399.028.906.017 1.342-.01.38.247.716.615.798.42.095.814.482 1.23.891l.015.015c-1.17.295-1.947.55-2.057.587a.798.798 0 00.247 1.552.79.79 0 00.247-.04c.094-.031 9.42-3.103 13.933-.384a.78.78 0 001.078-.277.801.801 0 00-.274-1.091c-3.1-1.867-7.864-1.44-11.241-.778-.278-.161-.558-.435-.851-.724-.39-.385-.821-.905-1.432-1.009.025-.52.04-1.47-.084-1.933l-.006-.023-.015-.057c-.003-.01-.009-.02-.013-.029a.855.855 0 00-.12-.216.765.765 0 00-.495-.29.764.764 0 00-.097-.009l-.036-.003a8.034 8.034 0 01-.425-.003c-.755-.026-.734-.01-.86-.204-.125-.195.242-.622.444-.919.363-.532.774-1.135.599-1.841a.801.801 0 00-.049-.14c-1.317-2.902-.423-6.652 2.226-9.333a9.707 9.707 0 016.95-2.914c2.626 0 5.094 1.035 6.96 2.924.677.66 2.316 2.526 2.95 5.604.546 2.645-.287 5.127-2.122 9.06z" fill="#5B5D77"/><path d="M33.067 16.851c-.652-.543-1.6-.707-2.474-.428a.798.798 0 00-.513.998c.13.42.573.652.986.52.366-.118.759-.062 1.001.139.2.166.282.42.245.753-.063.567-.685 1.27-1.306 1.476-.411.135-.56-.027-.623-.098a.78.78 0 00-1.112-.046.803.803 0 00-.045 1.125c.397.437.918.663 1.493.663.25 0 .511-.043.776-.13 1.204-.4 2.249-1.634 2.38-2.812.096-.865-.198-1.652-.808-2.16z" fill="#5B5D77"/></svg>