<svg width="45" height="45" fill="none" xmlns="http://www.w3.org/2000/svg"><path d="M21.152 3.899c0-.52-.218-1.02-.61-1.398-.928-.887-2.784-2.37-4.755-2.45C13.18-.03 10.792 1.065 10 2.714c-.386.8-.522 1.971.36 3.478-1.107-.406-2.367-.253-3.317.403-1.726 1.218-2.143 3.848-1.35 5.303.135.251.292.517.453.791a3.554 3.554 0 00-1.84.057c-1.246.432-2.185 2.095-2.2 3.474a3.983 3.983 0 00.302 1.545 3.75 3.75 0 00-1.564 1.54 4.349 4.349 0 00.104 3.896c.362.795 1.001 1.461 1.82 1.895a2.476 2.476 0 00-1.09.569C.42 26.887-.178 28.553.046 30.215c.198 1.686 1.1 3.207 2.357 3.97.437.25.976.308 1.465.157a3.006 3.006 0 00-.412 2.37c.412 1.464 2.195 2.682 5.438 3.72 1.22 3.98 4.567 4.52 5.991 4.568h.522c2.377-.08 4.557-1.213 5.088-2.71.297-.849.48-4.773.579-9.84a.367.367 0 000-.108c.208-10.052.109-24.491.078-28.443zM19.437 41.97c-.303.849-1.643 1.716-3.363 1.953.265-1.498.438-4.384.145-5.308-.35-1.118-2.325-2.663-2.55-2.843a.598.598 0 00-.408-.12.581.581 0 00-.383.177.48.48 0 00.062.72c.746.574 2.002 1.72 2.2 2.37.25.795.032 3.904-.219 5.094-3.571-.114-4.692-2.886-5.026-4.076a.525.525 0 00-.36-.355c-3.003-.948-4.692-1.976-5.005-3.109-.365-1.308 1.1-2.762 2.399-4.047a23.88 23.88 0 001.12-1.16v-.001a.473.473 0 00-.062-.71.594.594 0 00-.782.056 9.99 9.99 0 01-.443.474c-1.403 1.422-3.098 2.602-3.707 2.232-.97-.592-1.705-1.862-1.862-3.236-.197-1.368.287-2.744 1.32-3.754.495-.474 1.511-.474 3.044-.45h.673a.554.554 0 00.526-.355.483.483 0 00-.208-.565 1.834 1.834 0 00-.787-.175c-1.043-.109-2.957-.318-3.77-2a3.426 3.426 0 01-.1-3.08c.23-.442.592-.816 1.044-1.08a6.59 6.59 0 002.289 1.895c.12.069.264.09.402.06a.519.519 0 00.328-.221c.155-.238.068-.546-.193-.687-1.663-.887-2.565-2.114-2.55-3.46 0-1.004.782-2.265 1.632-2.601.85-.337 1.564.095 2.148.417 1.523 2.313 3.561 4.824 4.99 5.402a.504.504 0 00-.276.237c-.146.26-1.387 2.607-1.565 3.516a.462.462 0 00.093.376.558.558 0 00.36.202h.095c.27 0 .502-.178.547-.421.383-1.118.87-2.204 1.455-3.247a.437.437 0 000-.45 5.965 5.965 0 003.379-.194c.277-.116.399-.416.27-.668-.128-.253-.457-.363-.735-.246a4.63 4.63 0 01-3.185 0c-1.429-.579-4.171-4.194-5.736-7.076-.578-1.061-.208-3.185 1.043-4.061 1.397-.99 3.228 0 4.52 1.01a.593.593 0 00.783-.029.472.472 0 00-.032-.711c-1.887-1.725-2.57-3.317-1.976-4.545.595-1.227 2.607-2.123 4.735-2.056 1.637.047 3.331 1.507 3.983 2.137.199.193.31.447.313.71 0 3.176.042 6.915.042 10.787a5.923 5.923 0 00-1.94-1.147 9.893 9.893 0 00-3.102-.625.594.594 0 00-.43.129.488.488 0 00-.182.375c0 .143.066.28.183.376a.595.595 0 00.429.129c1.11 0 4.353.597 4.937 2.521.021.06.055.117.1.166 0 2.668 0 5.364-.032 7.956-.897.233-3.41-.379-3.947-.653a.602.602 0 00-.42-.042.545.545 0 00-.33.24.438.438 0 00-.063.386.49.49 0 00.276.297 12.47 12.47 0 003.926.825c.174-.002.349-.013.521-.033 0 2.25-.041 4.407-.078 6.378-1.08.18-3.827.337-5.136-.284h-.046c-1.31-.474-2.738-2.844-3.17-4.014a.512.512 0 00-.272-.32.605.605 0 00-.443-.035.537.537 0 00-.327.273.46.46 0 00-.001.404c.422 1.156 1.96 3.915 3.775 4.611a8.628 8.628 0 003.415.54c.741 0 1.482-.048 2.216-.146-.1 4.762-.266 8.245-.516 8.965zm23.926-16.348a2.435 2.435 0 00-.704-.421 3.207 3.207 0 001.403-1.313c.558-1.01 1.162-4.137-1.387-5.848a4.083 4.083 0 00-.084-3.87c-.677-1.21-1.925-2.073-3.389-2.343.939-1.422.423-3.862-1.09-5.085a3.735 3.735 0 00-1.705-.749 3.918 3.918 0 00-1.887.147 3.3 3.3 0 00.287-2.99c-.767-1.895-3.379-3.227-6.08-3.147-2.085.057-3.994 1.583-4.963 2.488-.37.343-.582.8-.595 1.28v4.042a.49.49 0 000 .08v.19c-.052 10.298-.067 32.045.72 34.192.521 1.422 2.779 2.417 5.1 2.417a7.85 7.85 0 001.146-.085c2.173-.336 3.991-1.686 4.787-3.555 1.387-.151 6.538-2.27 6.538-5.213a4.82 4.82 0 00-.177-1.232c1.756-.595 3.06-1.96 3.462-3.625.62-1.883.094-3.923-1.382-5.36zm.308 5.109c-.313 1.341-1.354 2.446-2.764 2.933-.97-2.09-3.128-3.848-5.135-3.848h-.287c-2.868 0-5.448-.19-5.573-2.658-.014-.278-.272-.493-.577-.481-.306.012-.542.246-.53.523.178 3.64 4.407 3.626 6.68 3.621h.286c2.258 0 4.547 2.929 4.547 5.028 0 2.005-3.54 3.672-5.021 4.104.279-1.051.403-2.132.37-3.213-.017-.266-.26-.474-.553-.474-.296.013-.527.238-.52.507.088 5.341-2.873 6.597-4.646 6.871a6.789 6.789 0 01-3.275-.322h-.047l2.477-2.654a.478.478 0 00.151-.368.487.487 0 00-.187-.354.591.591 0 00-.793.06l-2.664 2.767a1.86 1.86 0 01-.678-.801c-.204-.555-.35-2.754-.454-5.92a.596.596 0 00.318-.113 24.931 24.931 0 015.214-.948c.286-.025.504-.243.504-.504 0-.262-.218-.48-.504-.505a26.269 26.269 0 00-5.6 1.01c-.073-2.668-.125-5.9-.151-9.365a.557.557 0 00.141-.142c.266-.313 2.247-1.73 3.738-2 .3-.054.495-.318.436-.59-.06-.272-.35-.45-.65-.396a10.31 10.31 0 00-3.68 1.758 936.448 936.448 0 010-12.71c.196.275.427.527.688.754 1.006.82 2.414 1.223 4.28 1.223.271 0 .558 0 .85-.024.307-.018.54-.257.521-.536a.487.487 0 00-.185-.349.59.59 0 00-.404-.125c-1.981.114-3.394-.194-4.317-.947-.922-.754-1.319-1.83-1.428-3.507 0-1.493 0-2.924.026-4.265a.86.86 0 01.287-.621c.682-.616 2.455-2.109 4.202-2.16 2.206-.063 4.406 1.027 5.031 2.492.522 1.265-.172 2.658-2.002 4.033l-.083.047a.471.471 0 00-.098.72.588.588 0 00.797.057l.093-.066c1.976-1.455 3.718-1.735 4.901-.782 1.184.953 1.492 2.943.856 3.848a9.352 9.352 0 01-1.179 1.28 12.946 12.946 0 00-1.475 1.577 7.751 7.751 0 00-1.121 3.2H28.7c-.305 0-.552.224-.552.502 0 .277.247.502.552.502h5.647a20.066 20.066 0 00-.114 2.19c0 .277.247.502.552.502.305 0 .553-.225.553-.503 0-1.957.313-4.653 1.183-5.824.403-.515.851-1 1.34-1.45.203-.194.397-.389.584-.578.67.04 1.314.24 1.87.58.558.34 1.006.806 1.3 1.353a3.05 3.05 0 010 3.057 13.084 13.084 0 01-2.226 2.308.475.475 0 000 .71.576.576 0 00.391.148.55.55 0 00.391-.147 21.11 21.11 0 001.893-1.848c2.304 1.587 1.042 4.525 1.006 4.554-.71 1.294-2.68 1.35-3.743 1.379-.33-.03-.66.02-.96.147-.238.11-.356.357-.28.59.075.232.322.383.588.357h.703c1.601 0 2.66 0 3.186.474 1.137.958 1.58 2.683 1.106 4.332z" fill="#5B5D77"/></svg>