<svg width="54" height="45" fill="none" xmlns="http://www.w3.org/2000/svg"><path d="M27.105 27.297c-2.385 0-4.77-.84-7.092-2.492-2.106-1.502-4.11-3.641-5.962-6.352C10.619 13.431 7.98 6.817 6.819.308L8.063.001c2.22 12.409 10.13 25.802 19.049 25.802 5.296 0 9.49-4.504 12.071-8.288C42.494 12.673 45.038 6.292 46.16 0l1.244.315c-1.167 6.509-3.806 13.123-7.232 18.145-1.852 2.71-3.863 4.85-5.962 6.351-2.335 1.645-4.72 2.486-7.105 2.486z" fill="#5B5D77"/><path d="M39.7 42.652c-1.14-2.32-1.94-5.023-2.365-8.033-.343-2.387-.457-4.977-.336-7.695.203-4.617.996-7.965 1.027-8.1l1.218.413c-.006.03-.793 3.355-.983 7.807-.171 4.07.127 9.955 2.537 14.864l-1.097.744z" fill="#5B5D77"/><path d="M53.708 45c-9.452-2.628-12.567-4.482-14.628-5.713a26.602 26.602 0 00-.628-.368l.558-1.351c.21.12.419.248.647.383 2.011 1.2 5.043 3.01 14.343 5.593L53.708 45zM14.29 42.648l-1.098-.758c2.417-4.917 2.715-10.818 2.538-14.894-.197-4.444-.97-7.74-.984-7.77l1.218-.413c.032.143.825 3.49 1.028 8.1.12 2.718.006 5.308-.336 7.695-.425 3.018-1.224 5.72-2.366 8.04zm5.976-2.469l-1.218-.41c.7-2.905 1.013-6.189.929-9.754l1.27-.038c.08 3.715-.244 7.149-.981 10.202z" fill="#5B5D77"/><path d="M.292 44.998L0 43.534c9.344-2.597 12.37-4.407 14.374-5.608.215-.127.418-.248.615-.36l.558 1.351c-.19.113-.393.233-.603.353-2.055 1.231-5.163 3.093-14.653 5.728z" fill="#5B5D77"/></svg>