<svg width="45" height="45" fill="none" xmlns="http://www.w3.org/2000/svg"><path d="M25.769.074A72.82 72.82 0 004.413 2.282 2.133 2.133 0 003.07 3.34a2.25 2.25 0 00-.169 1.731 52.095 52.095 0 012.074 20.302 12.826 12.826 0 01-2.26 5.827 10.884 10.884 0 00-1.194 2.169 20.6 20.6 0 00-1.518 6.858c-.025.51.124 1.01.42 1.419a2.12 2.12 0 001.203.815 87.072 87.072 0 0041.745 0 2.117 2.117 0 001.204-.814 2.23 2.23 0 00.422-1.42 20.596 20.596 0 00-1.518-6.858 10.88 10.88 0 00-1.196-2.17 12.827 12.827 0 01-2.261-5.827A52.102 52.102 0 0142.098 5.07a2.249 2.249 0 00-.17-1.732 2.133 2.133 0 00-1.342-1.056A72.894 72.894 0 0025.77.073h-.001zm-.037.875c4.942.222 9.849.953 14.65 2.183.34.087.633.317.805.634.171.317.208.694.1 1.04a53.005 53.005 0 00-2.11 20.663 13.716 13.716 0 002.421 6.248c.44.618.809 1.287 1.1 1.993a19.7 19.7 0 011.452 6.56 1.34 1.34 0 01-.254.85 1.272 1.272 0 01-.721.49 86.248 86.248 0 01-41.352 0 1.272 1.272 0 01-.721-.49 1.343 1.343 0 01-.253-.85 19.7 19.7 0 011.453-6.56c.29-.706.66-1.375 1.1-1.993a13.72 13.72 0 002.42-6.248A53.003 53.003 0 003.709 4.806a1.349 1.349 0 01.102-1.04 1.28 1.28 0 01.807-.634A71.99 71.99 0 0125.732.95z" fill="#5B5D77"/><path d="M22.737 28.008V25.59a.431.431 0 00-.425-.433.431.431 0 00-.424.433v2.418a.43.43 0 00.424.433.431.431 0 00.425-.433z" fill="#5B5D77"/></svg>