<svg width="45" height="45" fill="none" xmlns="http://www.w3.org/2000/svg"><path d="M18.808.007c-.283-.049-.56.155-.612.457-.632 3.887-2.297 3.95-3.765 4.007l-.164.007C11.173 4.61 2.959 4.97 3.195 16.82c.151 7.563-1.284 14.192-2.159 17.467-.48 1.82-.79 3.69-.908 5.574-.119 1.82-.152 3.36-.112 4.583.013.302.243.541.526.541h.02a.551.551 0 00.507-.583c-.04-1.181 0-2.685.112-4.47.112-1.8.408-3.6.869-5.343.888-3.332 2.35-10.087 2.198-17.79-.19-9.532 5.279-10.987 10.064-11.198l.165-.006c1.586-.064 3.982-.155 4.765-4.942a.564.564 0 00-.434-.647z" fill="#5B5D77"/><path d="M10.481 15.723c-.072-.302-.355-.485-.638-.407a.563.563 0 00-.382.681c.421 1.772.487 3.88.21 6.453-.263.822-2.784 8.758-2.784 12.097 0 5.089-1.092 9.686-1.099 9.728a.575.575 0 00.382.689.426.426 0 00.131.02.54.54 0 00.514-.42c.046-.19 1.132-4.773 1.132-10.01 0-2.27 1.317-7.057 2.126-9.778.368 2.13.836 5.413.592 7.458-.204 1.715-.585 3.149-.993 4.667-.58 2.158-1.179 4.387-1.244 7.514-.007.31.224.57.513.577h.013c.283 0 .52-.246.527-.548.059-2.98.638-5.139 1.198-7.226.402-1.49.816-3.036 1.027-4.836.382-3.233-.823-9.04-.988-9.826.29-2.707.21-4.942-.237-6.833zm34.385 24.139a29.107 29.107 0 00-.908-5.574c-.87-3.275-2.304-9.904-2.16-17.46.238-11.85-7.977-12.21-11.07-12.343l-.165-.007c-1.468-.056-3.127-.12-3.765-4.007-.053-.309-.323-.506-.612-.457a.558.558 0 00-.428.654c.783 4.787 3.179 4.878 4.765 4.942l.165.006c4.785.211 10.249 1.666 10.064 11.198-.151 7.703 1.31 14.451 2.199 17.79.46 1.743.757 3.543.868 5.342.112 1.779.152 3.283.112 4.47a.55.55 0 00.507.584h.02c.283 0 .513-.239.526-.541.04-1.237 0-2.783-.118-4.597z" fill="#5B5D77"/><path d="M38.12 34.548c0-3.338-2.52-11.274-2.784-12.097-.283-2.573-.21-4.688.21-6.452a.563.563 0 00-.381-.682c-.283-.077-.566.106-.639.408-.447 1.898-.526 4.126-.236 6.825-.172.787-1.37 6.593-.988 9.826.21 1.8.625 3.346 1.027 4.836.56 2.088 1.139 4.246 1.198 7.226.006.309.244.548.527.548h.013c.29-.007.52-.267.513-.576-.066-3.128-.665-5.356-1.244-7.514-.408-1.519-.79-2.953-.993-4.668-.244-2.046.223-5.328.592-7.458.81 2.72 2.126 7.507 2.126 9.778 0 5.237 1.086 9.82 1.132 10.01.06.252.277.42.513.42a.422.422 0 00.132-.02c.283-.078.454-.387.382-.69-.013-.034-1.1-4.624-1.1-9.72zM25.094 11.802h.112c.29 0 .527-.252.527-.562 0-.31-.237-.562-.527-.562h-.112v-.028c0-.422-.19-.816-.507-1.062a1.135 1.135 0 00-1.08-.19 3.09 3.09 0 01-2.013 0 1.135 1.135 0 00-1.08.19 1.355 1.355 0 00-.507 1.062v.028h-.105c-.29 0-.527.253-.527.562 0 .31.237.562.527.562h.112v.099c0 .302.099.576.263.801a1.397 1.397 0 00-.263.802v.028h-.112c-.29 0-.527.252-.527.562 0 .309.237.562.527.562h.112v.098c0 .303.099.577.263.802a1.397 1.397 0 00-.263.801v.028h-.112c-.29 0-.527.253-.527.563 0 .309.237.562.527.562h.112v.098c0 .303.099.577.263.802a1.397 1.397 0 00-.263.801v.028h-.112c-.29 0-.527.253-.527.562 0 .31.237.563.527.563h.112v.098c0 .302.099.576.263.802a1.397 1.397 0 00-.263.801v.028h-.112c-.29 0-.527.253-.527.562 0 .31.237.563.527.563h.112v.098c0 .302.099.576.263.802a1.397 1.397 0 00-.263.801v.028h-.112c-.29 0-.527.252-.527.562 0 .31.237.562.527.562h.112v.099c0 .302.099.576.263.801a1.397 1.397 0 00-.263.802v.027h-.112c-.29 0-.527.253-.527.563 0 .31.237.562.527.562h.112v.099c0 .302.099.576.263.801a1.397 1.397 0 00-.263.802v.027h-.112c-.29 0-.527.253-.527.563 0 .309.237.562.527.562h.112v.098c0 .302.099.577.263.802a1.397 1.397 0 00-.263.801v.028h-.112c-.29 0-.527.253-.527.562 0 .31.237.563.527.563h.112v.098c0 .302.099.576.263.801a1.397 1.397 0 00-.263.802v.028h-.112c-.29 0-.527.253-.527.562 0 .31.237.563.527.563h.112v.098c0 .302.099.576.263.801a1.397 1.397 0 00-.263.802v.028h-.112c-.29 0-.527.252-.527.562 0 .309.237.562.527.562h.112v.098c0 .303.099.577.263.802a1.397 1.397 0 00-.263.801v.028h-.112c-.29 0-.527.253-.527.563 0 .309.237.562.527.562h.112v.098c0 .5.257.95.651 1.16a4.18 4.18 0 001.936.478c.665 0 1.33-.161 1.935-.478.395-.21.652-.667.652-1.16v-.098h.111c.29 0 .527-.253.527-.562 0-.31-.237-.563-.526-.563h-.112v-.028c0-.295-.1-.576-.264-.801.165-.225.264-.499.264-.802v-.098h.111c.29 0 .527-.253.527-.562 0-.31-.237-.563-.526-.563h-.112v-.028c0-.295-.1-.576-.264-.801.165-.225.264-.499.264-.802v-.098h.111c.29 0 .527-.253.527-.562 0-.31-.237-.563-.526-.563h-.112v-.027c0-.296-.1-.577-.264-.802.165-.225.264-.499.264-.801v-.099h.111c.29 0 .527-.253.527-.562 0-.31-.237-.563-.526-.563h-.112v-.027c0-.296-.1-.577-.264-.802.165-.225.264-.499.264-.801v-.099h.111c.29 0 .527-.253.527-.562 0-.31-.237-.563-.526-.563h-.112v-.027c0-.296-.1-.577-.264-.802.165-.225.264-.499.264-.801v-.099h.111c.29 0 .527-.253.527-.562 0-.31-.237-.563-.526-.563h-.112v-.027c0-.296-.1-.577-.264-.802.165-.225.264-.499.264-.801v-.099h.111c.29 0 .527-.253.527-.562 0-.31-.237-.563-.526-.563h-.112v-.027c0-.296-.1-.577-.264-.802.165-.225.264-.499.264-.801v-.099h.111c.29 0 .527-.253.527-.562 0-.31-.237-.563-.526-.563h-.112v-.027c0-.296-.1-.577-.264-.802.165-.225.264-.499.264-.801v-.099h.111c.29 0 .527-.253.527-.562 0-.31-.237-.563-.526-.563h-.112v-.027c0-.296-.1-.577-.264-.802.165-.225.264-.499.264-.801v-.099h.111c.29 0 .527-.253.527-.562 0-.31-.237-.563-.526-.563h-.112v-.027c0-.296-.1-.577-.264-.802.165-.225.264-.499.264-.801v-.099h.111c.29 0 .527-.253.527-.562 0-.31-.237-.563-.526-.563h-.112v-.027c0-.296-.1-.577-.264-.802.165-.225.264-.499.264-.801v-.097h.006zm-1.586 29.03a3.09 3.09 0 01-2.014 0 1.096 1.096 0 00-.297-.056.499.499 0 00-.17-.14c-.04-.021-.067-.085-.067-.155V39.23c0-.091.053-.14.073-.155.026-.02.078-.049.138-.028a4.082 4.082 0 002.652 0c.06-.02.106 0 .139.028.02.021.072.064.072.155v1.251c0 .063-.026.134-.066.155a.575.575 0 00-.171.14c-.092.007-.19.028-.29.056zm.322-24.65c.06-.021.106 0 .139.028.02.02.072.063.072.154v1.251c0 .064-.026.134-.066.155a3.143 3.143 0 01-2.936 0c-.039-.021-.066-.084-.066-.155v-1.25c0-.092.053-.141.073-.155.026-.021.079-.05.138-.028a4.063 4.063 0 002.646 0zm0 5.714c.06-.02.106 0 .139.028.02.021.072.063.072.155v1.25c0 .064-.026.134-.066.155a3.143 3.143 0 01-2.936 0c-.039-.02-.066-.084-.066-.154v-1.251a.19.19 0 01.073-.155c.026-.02.079-.049.138-.028a4.063 4.063 0 002.646 0zm0 5.722c.06-.02.106 0 .139.028.02.021.072.063.072.155v1.25c0 .064-.026.134-.066.155a3.156 3.156 0 01-2.942 0c-.04-.02-.066-.084-.066-.154V27.8a.19.19 0 01.072-.155c.026-.02.079-.05.138-.028a4.083 4.083 0 002.653 0zm0 5.715c.06-.021.106 0 .139.028.02.02.072.063.072.154v1.251c0 .063-.026.134-.066.155a3.156 3.156 0 01-2.942 0c-.04-.021-.066-.084-.066-.155v-1.25c0-.092.052-.141.072-.155.026-.021.079-.05.138-.028a4.083 4.083 0 002.653 0zm-.322 4.646a3.09 3.09 0 01-2.014 0 1.096 1.096 0 00-.297-.056.5.5 0 00-.17-.14c-.04-.022-.067-.085-.067-.155v-1.251a.19.19 0 01.073-.155.167.167 0 01.138-.028c.013.007.026 0 .046.007.415.134.85.21 1.284.21.434 0 .862-.076 1.283-.21.014-.007.027 0 .047-.007.059-.02.105 0 .138.028.02.021.072.063.072.155v1.25c0 .064-.026.134-.066.155a.573.573 0 00-.17.14.883.883 0 00-.297.057zm0-5.722a3.09 3.09 0 01-2.014 0 1.096 1.096 0 00-.297-.056.499.499 0 00-.17-.14c-.04-.022-.067-.085-.067-.155v-1.251c0-.091.053-.14.073-.155a.167.167 0 01.138-.028c.013.007.026 0 .046.007.415.134.85.211 1.284.211a4.25 4.25 0 001.283-.21c.014-.008.027 0 .047-.008.059-.02.105 0 .138.028.02.021.072.064.072.155v1.25c0 .064-.026.134-.066.155a.475.475 0 00-.164.14 1.445 1.445 0 00-.303.057zm0-5.714a3.09 3.09 0 01-2.014 0 1.096 1.096 0 00-.297-.057.5.5 0 00-.17-.14c-.04-.021-.067-.084-.067-.154V24.94c0-.091.053-.14.073-.154a.14.14 0 01.138-.028c.013.007.033 0 .046.007.415.133.85.21 1.284.21a4.25 4.25 0 001.283-.21c.014-.007.033 0 .047-.007a.133.133 0 01.138.028c.02.02.072.063.072.154v1.252c0 .063-.026.133-.066.154a.573.573 0 00-.17.14 1.096 1.096 0 00-.297.057zm0-5.715a3.09 3.09 0 01-2.014 0 1.095 1.095 0 00-.297-.056.498.498 0 00-.17-.14c-.04-.022-.067-.085-.067-.155v-1.251c0-.091.053-.14.073-.155a.14.14 0 01.138-.028c.013.007.033 0 .046.007.415.134.85.211 1.284.211a4.25 4.25 0 001.283-.21c.014 0 .033 0 .047-.008.059-.02.105 0 .138.028.02.021.072.063.072.155v1.251c0 .063-.026.133-.066.155a.572.572 0 00-.17.14.883.883 0 00-.297.056zm0-5.722a3.09 3.09 0 01-2.014 0 1.095 1.095 0 00-.297-.056.499.499 0 00-.17-.14c-.04-.021-.067-.084-.067-.155v-1.25c0-.092.053-.141.073-.155a.14.14 0 01.138-.028c.013.007.033 0 .046.007.415.133.85.21 1.284.21a4.25 4.25 0 001.283-.21c.014-.007.033 0 .047-.007a.133.133 0 01.138.028c.02.02.072.063.072.154v1.251c0 .063-.026.134-.066.155a.572.572 0 00-.17.14 1.473 1.473 0 00-.297.056zm-2.541-4.463c0-.092.053-.14.072-.155.027-.02.08-.049.139-.028a4.082 4.082 0 002.652 0c.06-.02.106 0 .139.028.02.021.072.063.072.155v1.25c0 .064-.026.134-.066.155a3.143 3.143 0 01-2.936 0c-.039-.02-.066-.084-.066-.154v-1.251h-.006zm3.068 32.699c0 .063-.027.133-.067.154a3.156 3.156 0 01-2.942 0c-.04-.02-.066-.084-.066-.154V42.09a.19.19 0 01.073-.155.162.162 0 01.092-.035c.013 0 .026 0 .046.007a4.082 4.082 0 002.652 0c.06-.021.106 0 .139.028.02.02.072.063.072.154v1.252z" fill="#5B5D77"/></svg>