<svg width="40" height="45" fill="none" xmlns="http://www.w3.org/2000/svg"><path d="M39.035 35.733c-.266 0-.488-.225-.488-.54V32.27c0-3.825 0-3.825-.266-10.168-.09-1.484-.134-3.284-.267-5.578-.177-3.644-.4-8.637-3.997-11.067-1.332-.9-2.93-1.26-4.663-1.62-2.309-.494-4.663-1.034-6.261-2.968a.552.552 0 01.044-.72.535.535 0 01.71.045c1.377 1.664 3.464 2.114 5.685 2.609 1.776.405 3.553.81 5.018 1.8 3.997 2.744 4.264 8.232 4.441 11.921.09 2.294.178 4.094.267 5.578.31 6.344.31 6.344.266 10.212v2.88c0 .27-.222.54-.489.54zm-4.174 0a.522.522 0 01-.488-.405l-1.377-7.738a.508.508 0 01.4-.585.503.503 0 01.577.405l1.377 7.693a.508.508 0 01-.4.585c-.044.045-.089.045-.089.045zM33.397 45a.463.463 0 01-.444-.315l-.666-1.395c-2.665-5.713-3.33-12.236-1.82-18.354.088-.27.355-.45.62-.36.267.09.445.36.356.63-1.421 5.893-.799 12.19 1.776 17.68l.666 1.394c.134.27 0 .585-.222.675-.132.045-.221.045-.266.045zm-27.27 0c-.088 0-.133 0-.222-.045-.266-.135-.355-.45-.222-.675l.666-1.394c2.576-5.489 3.198-11.742 1.776-17.68-.088-.27.09-.54.356-.63.266-.09.533.09.622.36 1.465 6.118.843 12.641-1.821 18.355l-.666 1.394c-.089.225-.266.315-.489.315zM.489 35.733c-.267 0-.489-.225-.489-.54v-2.88c0-3.868 0-3.868.266-10.211.09-1.485.134-3.284.267-5.579.177-3.644.4-9.177 4.44-11.921 1.466-.99 3.243-1.395 4.975-1.8 2.22-.495 4.307-.945 5.684-2.61.178-.224.489-.269.71-.044.223.18.267.495.045.72-1.599 1.934-3.953 2.474-6.262 2.97-1.732.359-3.33.719-4.663 1.619-3.597 2.429-3.82 7.422-3.997 11.066a265.961 265.961 0 01-.266 5.579C.977 28.49.977 28.49 1.02 32.313v2.924c0 .225-.222.495-.532.495zm4.174 0h-.089a.508.508 0 01-.4-.585l1.377-7.783a.502.502 0 01.578-.405.508.508 0 01.4.585l-1.377 7.738c0 .27-.222.45-.489.45z" fill="#5B5D77"/><path d="M26.512 24.666c-2.62 0-5.418-1.664-6.839-3.509-1.465 1.934-4.485 3.644-7.194 3.464-2.043-.135-3.82-1.125-5.018-2.789-1.555-2.204-2.043-5.308-1.244-8.368.089-.27.355-.45.622-.36.266.09.444.36.355.63-.71 2.745-.311 5.534 1.066 7.513 1.021 1.44 2.531 2.294 4.264 2.384 2.575.135 5.64-1.799 6.705-3.643a.488.488 0 01.445-.27c.177 0 .355.09.444.27 1.066 1.844 4.13 3.778 6.706 3.643 1.731-.09 3.241-.945 4.263-2.384 1.377-1.934 1.776-4.724 1.066-7.513-.09-.27.089-.54.355-.63.267-.09.533.09.622.36.8 3.06.31 6.164-1.244 8.368-1.199 1.664-2.975 2.7-5.018 2.79-.134.044-.267.044-.356.044z" fill="#5B5D77"/><path d="M12.656 18.817a.67.67 0 01-.666.675.67.67 0 01-.666-.675.67.67 0 01.666-.674.67.67 0 01.666.674zm15.278 0a.67.67 0 01-.666.675.67.67 0 01-.666-.675.67.67 0 01.666-.674.67.67 0 01.666.674z" fill="#5B5D77"/></svg>