<svg width="45" height="45" fill="none" xmlns="http://www.w3.org/2000/svg"><path d="M41.55 15.864c-.242-1.247-.515-2.661-1.06-4.116-.553-1.484-1.59-2.52-2.995-2.996-1.961-.665-4.174-.094-5.12.526-1.09.713-2.782.958-3.255 1.012-.416-1.165-1.43-2.064-2.117-2.557.46-.43.754-1.044.754-1.733 0-.825-.42-1.55-1.05-1.968a2.23 2.23 0 00.923-1.815C27.63.995 26.66 0 25.47 0h-5.59c-1.19 0-2.159.995-2.159 2.218 0 .75.367 1.412.925 1.814a2.364 2.364 0 00-.443 3.552c-.667.453-1.866 1.425-2.322 2.709-.472-.057-2.16-.3-3.255-1.015-.947-.618-3.16-1.19-5.12-.526-1.407.477-2.443 1.512-2.997 2.996-.542 1.455-.817 2.87-1.06 4.116-.419 2.167-.782 4.036-2.358 5.462-1.097.993-1.383 2.493-.784 4.12.8 2.174 3.219 4.423 5.883 4.423 3.47 0 6.644 2.689 7.324 5.102l.064.222c.679 2.425 1.943 6.92 6.904 7.188v.337c0 .788.345 2.282 1.651 2.282h.732c1.306 0 1.652-1.494 1.652-2.282v-.337c4.96-.267 6.225-4.763 6.905-7.188l.062-.222c.68-2.413 3.856-5.101 7.325-5.101 2.665 0 5.085-2.25 5.885-4.425.597-1.626.311-3.126-.784-4.119-1.575-1.426-1.939-3.295-2.36-5.462zM18.483 2.217c0-.79.627-1.434 1.398-1.434h5.59c.771 0 1.397.643 1.397 1.434 0 .791-.626 1.435-1.398 1.435h-5.59c-.77 0-1.397-.644-1.397-1.435zm1.398 2.479h5.59c.7 0 1.27.585 1.27 1.304 0 .72-.57 1.305-1.27 1.305h-5.59c-.701 0-1.27-.586-1.27-1.305 0-.72.569-1.304 1.27-1.304zm-.745 3.524c.004-.002.006-.006.008-.008.234.083.478.136.736.136h5.59c.175 0 .341-.024.504-.061.655.39 2.086 1.47 2.298 2.696.207 1.188-1.641 2.85-2.392 3.408a2.28 2.28 0 00-.41-.043h-5.59c-.236 0-.458.046-.674.116-.008-.006-.01-.016-.02-.022-.705-.51-2.672-2.24-2.46-3.459.27-1.553 2.388-2.751 2.41-2.763zm8.615 8.408c.002-.004.008-.008.01-.012.024-.045.603-1.094 2.156-1.094.521 0 .903.2 1.131.595.32.556.298 1.435-.051 2.089l-.082.149c-.726 1.355-1.725 3.207-.893 5.199.117.281.254.578.397.888.736 1.608 1.572 3.43.467 4.608-.578.618-1.245.596-1.703.47-1.151-.319-2.158-1.564-2.626-3.204a2.35 2.35 0 001.2-2.055c0-.778-.373-1.463-.943-1.89.57-.429.943-1.114.943-1.892 0-.778-.373-1.463-.943-1.891.57-.428.943-1.113.943-1.892 0-.023-.006-.045-.006-.068zm-7.87 2.546h5.589c.7 0 1.27.585 1.27 1.304 0 .72-.57 1.304-1.27 1.304h-5.59c-.7 0-1.27-.584-1.27-1.304 0-.72.57-1.304 1.27-1.304zm-1.271-2.478c0-.72.57-1.305 1.27-1.305h5.59c.7 0 1.27.585 1.27 1.305S26.17 18 25.47 18h-5.59c-.7 0-1.27-.585-1.27-1.304zm1.27 6.26h5.59c.7 0 1.27.585 1.27 1.305s-.57 1.304-1.27 1.304h-5.59c-.7 0-1.27-.585-1.27-1.304 0-.72.57-1.304 1.27-1.304zm-1.342-.586a2.36 2.36 0 00-.037 3.75c-.441 1.738-1.485 3.07-2.682 3.4-.459.126-1.128.148-1.703-.47-1.106-1.178-.27-3 .466-4.608.141-.31.278-.607.395-.888.832-1.992-.164-3.844-.893-5.2l-.081-.148c-.35-.654-.371-1.533-.05-2.09.228-.395.607-.594 1.13-.594 1.55 0 2.129 1.043 2.155 1.094a.5.5 0 00.373.261 2.35 2.35 0 00.927 1.71 2.363 2.363 0 000 3.783zm1.944 18.963c-4.19-.256-5.236-3.962-5.927-6.427l-.063-.225c-.78-2.77-4.381-5.855-8.302-5.855-2.195 0-4.27-1.947-4.932-3.75-.26-.703-.538-2.024.505-2.967 1.833-1.659 2.247-3.787 2.685-6.04.245-1.266.499-2.577 1.01-3.946.449-1.199 1.245-2 2.366-2.38 1.626-.553 3.5-.078 4.256.415 1.245.813 3.02 1.088 3.627 1.164.105 1.581 1.796 3.106 2.558 3.715a2.32 2.32 0 00-.438.65c-.413-.489-1.26-1.208-2.743-1.208-.881 0-1.594.393-2.005 1.108-.498.867-.485 2.15.035 3.12l.082.154c.66 1.229 1.485 2.76.85 4.281-.114.271-.246.559-.382.856-.79 1.722-1.872 4.078-.28 5.776a2.61 2.61 0 001.936.86c.25 0 .506-.035.764-.106.591-.163 1.15-.503 1.647-.976.224 1.172.9 3.513 2.752 4.227l-.001 7.554zm3.414-8.452a.522.522 0 00-.395.51v9.324c0 .012-.024 1.241-.635 1.241h-.732c-.612 0-.636-1.228-.636-1.239v-9.326a.521.521 0 00-.393-.51c-2.09-.494-2.463-4.071-2.467-4.106a.478.478 0 00-.087-.23 7.13 7.13 0 00.88-1.983c.146.03.297.047.45.047h5.59c.037 0 .073-.01.109-.012.206.721.5 1.38.869 1.948a.5.5 0 00-.085.23c-.005.037-.372 3.611-2.468 4.106zm19.847-7.805c-.663 1.803-2.739 3.75-4.934 3.75-3.919 0-7.52 3.085-8.301 5.855l-.062.224c-.69 2.466-1.737 6.171-5.929 6.428v-7.555c1.854-.713 2.527-3.055 2.753-4.227.497.473 1.056.813 1.648.976.258.072.514.106.764.106.729 0 1.408-.295 1.935-.86 1.59-1.697.509-4.053-.28-5.775a26.61 26.61 0 01-.38-.856c-.636-1.523.186-3.053.846-4.282l.084-.153c.52-.97.534-2.254.034-3.12-.411-.716-1.124-1.109-2.005-1.109-1.25 0-2.047.516-2.515.97a2.396 2.396 0 00-.487-.558c.822-.685 2.281-2.101 2.378-3.569.608-.075 2.384-.35 3.629-1.163.754-.494 2.627-.969 4.253-.416 1.123.381 1.92 1.182 2.366 2.38.512 1.37.767 2.68 1.012 3.946.437 2.254.85 4.382 2.684 6.04 1.046.944.765 2.265.508 2.968z" fill="#5B5D77"/></svg>