<svg width="39" height="45" fill="none" xmlns="http://www.w3.org/2000/svg"><path d="M28.355 45a.547.547 0 01-.54-.54c.18-4.005.36-8.145-.09-12.195-.54-4.5-1.89-8.28-4.005-11.25l-.18-.27c-.585-.81-1.215-1.71-1.305-2.79-.09-1.125.45-2.25 1.44-3.06.18-.135 3.555-2.475 9.046-.855 2.024.585 3.69 1.8 4.725 3.465.225.36.404.675.495.99.585 1.665.585 3.735-.09 6.03-.27 1.035-.63 2.025-.99 2.925-.316.855-.676 1.71-.9 2.61-1.35 4.5-1.036 9.315-.766 13.95 0 .27-.18.54-.495.54s-.54-.18-.54-.495c-.27-4.5-.63-9.63.81-14.31.27-.9.63-1.8.945-2.655.36-.9.72-1.89.99-2.835.63-2.115.63-3.915.135-5.4a4.269 4.269 0 00-.405-.765c-.9-1.44-2.385-2.52-4.14-3.015-4.995-1.485-8.1.675-8.145.675-.675.54-1.08 1.395-1.035 2.115.045.81.586 1.485 1.125 2.25l.18.27c2.205 3.105 3.6 7.02 4.185 11.7.495 4.14.315 8.325.135 12.375-.09.315-.315.54-.585.54z" fill="#5B5D77"/><path d="M20.887 44.55a.527.527 0 01-.495-.405c-1.8-8.145-.855-16.83 2.655-24.39.134-.27.45-.36.674-.27.27.135.36.45.27.675-3.42 7.38-4.364 15.84-2.564 23.76.045.27-.135.54-.405.63h-.135zm3.554-.27a.527.527 0 01-.495-.405c-1.53-6.39-.855-14.76 1.575-20.25.135-.27.405-.405.675-.27s.405.405.27.675c-2.34 5.355-2.97 13.41-1.53 19.62.045.27-.09.54-.405.63h-.09zm-.405-30.24c-.18 0-.36-.09-.45-.225-1.035-1.62-1.935-2.385-1.935-2.385-2.07-1.62-4.95-2.61-8.28-2.835-2.745-.18-8.685.63-11.925 1.035l-.855.135c-.27.045-.54-.18-.585-.45-.045-.27.18-.54.45-.585l.855-.135c3.465-.45 9.27-1.215 12.105-1.035 3.51.225 6.57 1.305 8.865 3.06.045.044 1.035.855 2.16 2.654.135.226.09.586-.18.72 0 .046-.136.046-.225.046zm10.889 0h-.135c-.27-.09-.45-.36-.36-.63.18-.585.315-1.125.45-1.62.765-2.79 1.035-3.735.63-5.355-.54-2.205-2.25-4.095-4.365-4.86-1.53-.54-3.195-.54-4.815-.54H.545a.547.547 0 01-.54-.54c0-.27.27-.495.54-.495H26.33c1.62 0 3.465 0 5.175.585 2.43.855 4.41 3.06 4.995 5.58.45 1.89.135 2.97-.63 5.895-.135.495-.27.99-.45 1.62-.09.225-.27.36-.495.36z" fill="#5B5D77"/></svg>