<svg width="53" height="45" fill="none" xmlns="http://www.w3.org/2000/svg"><path d="M51.249 45c-.113-1.535-.25-2.822-.382-3.637-.388-2.385-.031-8.355-.013-8.612.557-9.856-2.065-15.44-8.028-17.07l-.063-.018c-.093-.026-.181-.051-.262-.068l-.032-.009c-4.493-1.295-7.91-3.68-9.611-6.7C31.043 5.67 31.563.233 31.588 0l1.239.232c-.007.051-.476 4.958 1.02 7.6 1.52 2.693 4.667 4.846 8.866 6.064.113.026.213.052.313.086l.05.017c2.879.79 5.113 2.488 6.633 5.053 1.927 3.242 2.728 7.9 2.397 13.836-.1 1.655-.3 6.339-.013 8.106.144.883.282 2.204.407 3.826l-1.251.18zm-11.839-.01c-.34-4.366-.018-7.29-.006-7.412l1.242.31c0 .03-.303 2.802.019 6.885l-1.254.217zM1.246 45L0 44.82c.125-1.622.263-2.944.407-3.828.288-1.767.087-6.444-.013-8.1-.338-5.939.47-10.598 2.398-13.842 1.52-2.566 3.755-4.265 6.64-5.054l.063-.017c.07-.017.144-.043.22-.052 4.237-1.218 7.417-3.38 8.938-6.092 1.502-2.652 1.026-7.552 1.02-7.603L20.913 0c.024.232.544 5.672-1.271 8.89-1.71 3.038-5.152 5.423-9.696 6.728l-.038.008c-.068.018-.144.035-.219.06l-.075.018c-5.921 1.647-8.525 7.233-7.968 17.06.013.248.376 6.23-.012 8.606-.132.807-.27 2.102-.388 3.63zm11.836 0l-1.254-.217c.322-4.102.013-6.856.013-6.884l1.241-.32c.019.122.34 3.054 0 7.42zm12.535-17.059h1.26v16.937h-1.26V27.94zm0-7.581h1.26v3.875h-1.26V20.36z" fill="#5B5D77"/></svg>