<svg width="116" height="32" fill="none" xmlns="http://www.w3.org/2000/svg"><path d="M24.12 5.12h1.76V32h-5.4V17.92l-6.64 8.32h-1.76l-6.64-8.32V32H.04V5.12H1.8L12.96 19.4 24.12 5.12zM31.954 32V5.6h9.92c2.773 0 5.053.787 6.84 2.36s2.68 3.627 2.68 6.16c0 2.507-.893 4.56-2.68 6.16-1.787 1.6-4.067 2.4-6.84 2.4h-4.52V32h-5.4zm5.4-14.04h4.52c1.253 0 2.227-.347 2.92-1.04.72-.72 1.08-1.653 1.08-2.8 0-1.12-.373-2.027-1.12-2.72-.72-.693-1.68-1.04-2.88-1.04h-4.52v7.6zM61.664 32V10.48h-8.44V5.6h22.32v4.88h-8.48V32h-5.4z" fill="#414255"/><path d="M94.555 15.04h7v2.4h-11.76v-.6l5.92-6.36c.906-.96 1.56-1.773 1.96-2.44.4-.667.6-1.387.6-2.16 0-.827-.267-1.52-.8-2.08-.507-.56-1.16-.84-1.96-.84-.854 0-1.547.28-2.08.84-.507.56-.76 1.293-.76 2.2l.08 1.28h-2.6c-.107-.4-.16-.88-.16-1.44 0-1.413.52-2.653 1.56-3.72 1.04-1.067 2.36-1.6 3.96-1.6 1.573 0 2.866.493 3.88 1.48 1.04.96 1.56 2.187 1.56 3.68 0 1.067-.28 2.053-.84 2.96-.534.907-1.44 2.04-2.72 3.4l-2.84 3zM104.2.8h11.24v.76l-7.92 15.88h-2.88l7.24-14.24h-7.68V.8z" fill="#272833"/></svg>