<svg width="44" height="44" fill="none" xmlns="http://www.w3.org/2000/svg"><rect x=".5" y=".5" width="43" height="43" rx="1.5" stroke="#272833"/><g clip-path="url(#clip0_330_8107)" fill="#5B5D77"><path d="M19.9 10h-1.35l-.9 3.45-.9-3.45h-1.5c.3.9.6 1.65.9 2.55.45 1.2.75 2.25.75 2.85V19h1.35v-3.6L19.9 10zm3.6 6.75V14.5c0-.75-.15-1.2-.45-1.65-.3-.45-.75-.6-1.35-.6-.6 0-1.05.3-1.35.75-.3.3-.45.75-.45 1.5v2.4c0 .75.15 1.2.45 1.5.3.45.75.6 1.35.6.6 0 1.05-.3 1.35-.75.3-.15.45-.75.45-1.5zm-1.2.3c0 .6-.15.9-.6.9-.45 0-.6-.3-.6-.9V14.2c0-.6.15-.9.6-.9.45 0 .6.3.6.9v2.85zM28 19v-6.75h-1.2v5.1c-.3.45-.45.6-.75.6-.15 0-.3-.15-.3-.3v-5.4h-1.2v5.25c0 .45 0 .75.15 1.05 0 .3.3.45.75.45s.9-.3 1.35-.75V19H28zm.6 6.75c-.45 0-.6.3-.6.9v.6h1.2v-.6c0-.6-.15-.9-.6-.9zm-4.35 0c-.15 0-.45.15-.6.3v4.05c.15.15.45.3.6.3.3 0 .45-.3.45-.9v-2.85c0-.6-.15-.9-.45-.9z"/><path d="M31.6 22.45c-.3-1.05-1.2-1.95-2.1-1.95-2.4-.3-4.95-.3-7.5-.3s-4.95 0-7.5.3c-.9 0-1.8.9-2.1 1.95-.3 1.5-.3 3.15-.3 4.65 0 1.5 0 3.15.3 4.65.3 1.05 1.05 1.8 2.1 1.95 2.55.3 4.95.3 7.5.3s4.95 0 7.5-.3c1.05-.15 1.95-.9 2.1-1.95.3-1.5.3-3.15.3-4.65 0-1.5 0-3.15-.3-4.65zM17.8 23.8h-1.5v7.65h-1.35V23.8H13.6v-1.35h4.2v1.35zm3.6 7.65h-1.2v-.75c-.45.6-.9.75-1.35.75-.45 0-.6-.15-.75-.45 0-.15-.15-.45-.15-1.05V24.7h1.2v5.25c0 .15.15.3.3.3.3 0 .45-.15.75-.6V24.7h1.2v6.75zm4.5-2.1c0 .6 0 1.05-.15 1.35-.15.45-.45.75-.9.75s-.9-.3-1.2-.75v.6h-1.2v-8.85h1.2v2.85c.45-.45.75-.75 1.2-.75.45 0 .75.3.9.75.15.3.15.75.15 1.35v2.7zm4.5-1.05H28v1.2c0 .6.15.9.6.9.3 0 .45-.15.6-.45v-.75h1.2v.9c0 .3-.15.45-.3.75-.3.45-.75.75-1.5.75-.6 0-1.05-.3-1.5-.75-.3-.3-.45-.9-.45-1.5V27.1c0-.75.15-1.2.3-1.5.3-.45.75-.75 1.5-.75.6 0 1.05.3 1.35.75.3.3.3.9.3 1.5v1.2h.3z"/></g><defs><clipPath id="clip0_330_8107"><path fill="#fff" transform="translate(10 10)" d="M0 0h24v24H0z"/></clipPath></defs></svg>