<svg width="15" height="19" fill="none" xmlns="http://www.w3.org/2000/svg"><path d="M14.25 16.625V5.344L8.906 0H2.375A2.375 2.375 0 000 2.375v14.25A2.375 2.375 0 002.375 19h9.5a2.375 2.375 0 002.375-2.375zM8.906 3.562a1.781 1.781 0 001.781 1.782h2.376v11.281a1.188 1.188 0 01-1.188 1.188h-9.5a1.187 1.187 0 01-1.188-1.188V2.375a1.188 1.188 0 011.188-1.188h6.531v2.375z" fill="#5B5D77"/><path d="M3.095 16.73a.962.962 0 01-.52-.5c-.232-.46-.154-.92.095-1.308.235-.365.625-.675 1.065-.935a9.12 9.12 0 011.76-.766 23.39 23.39 0 001.261-2.644 8.634 8.634 0 01-.51-1.538c-.103-.475-.142-.945-.055-1.349.09-.42.325-.798.772-.977.228-.092.475-.143.715-.092a.831.831 0 01.566.434c.105.195.143.423.151.639.008.223-.014.47-.056.729-.1.605-.32 1.346-.617 2.13.327.7.717 1.37 1.163 2.002a6.829 6.829 0 011.585.06c.432.078.871.231 1.14.552.142.17.229.38.237.615.008.228-.056.454-.164.668-.093.2-.239.37-.42.495-.18.117-.392.174-.606.163-.393-.016-.776-.232-1.108-.495a6.786 6.786 0 01-1.082-1.128c-.803.091-1.596.253-2.371.482-.355.63-.76 1.23-1.211 1.793-.347.416-.723.78-1.101.935a.942.942 0 01-.689.034zm1.638-2.258a5.94 5.94 0 00-.545.283c-.39.23-.643.454-.769.65-.111.171-.114.296-.047.428a.27.27 0 00.03.052.32.32 0 00.042-.014c.163-.067.422-.28.754-.68a9.7 9.7 0 00.535-.72zm1.947-1.58c.397-.092.797-.168 1.2-.229-.217-.33-.419-.67-.606-1.019a24.69 24.69 0 01-.594 1.247v.002zm2.905.535c.178.193.351.356.516.487.285.225.484.3.592.304a.128.128 0 00.083-.018.365.365 0 00.112-.148.518.518 0 00.07-.238.113.113 0 00-.031-.075c-.062-.073-.238-.18-.615-.248a4.597 4.597 0 00-.727-.063v-.001zM7.222 9.264c.1-.323.179-.651.237-.984.037-.223.051-.407.045-.552 0-.08-.012-.16-.038-.235a.614.614 0 00-.172.047c-.103.042-.187.126-.233.337-.047.228-.035.556.055.976.029.131.064.27.107.41h-.001z" fill="#5B5D77"/></svg>