<svg width="34" height="33" fill="none" xmlns="http://www.w3.org/2000/svg"><path d="M33.527 11.88h-2.073a15.309 15.309 0 00-.472-3.436.947.947 0 00-.916-.705h-1.865A12.181 12.181 0 0021.649.957a11.92 11.92 0 00-9.36 0 12.18 12.18 0 00-6.551 6.782H3.89a.947.947 0 00-.92.71 15.246 15.246 0 00-.473 3.431H.472a.476.476 0 00-.472.48v14.209a4.168 4.168 0 001.194 2.92 4.046 4.046 0 002.877 1.21h3.881c-.015.11-.023.22-.023.331v1.05c.002.509.41.92.91.92H25.16a.918.918 0 00.911-.92v-1.04c.008-.11.008-.22 0-.33h3.882a4.046 4.046 0 002.865-1.224A4.17 4.17 0 0034 26.569v-14.21a.483.483 0 00-.138-.338.47.47 0 00-.334-.14zm-4.642-1.663a2.666 2.666 0 00-.047-.278c0-.09-.033-.182-.061-.297-.029-.115-.029-.148-.047-.216l-.085-.354c-.038-.125-.071-.25-.11-.374h1.521a14.26 14.26 0 01.473 3.575v.091a13.896 13.896 0 01-2.97 8.497l-.317.402h-.123l-.548-1.548c.104-.139.199-.282.298-.426l.189-.269c.132-.2.255-.412.373-.618.047-.086.099-.162.146-.249.123-.225.231-.479.34-.695.033-.067.07-.134.1-.206.117-.263.221-.536.32-.804l.047-.13a12.21 12.21 0 00.501-1.975v-.072c.047-.303.085-.61.114-.92v-1.773c0-.178 0-.355-.038-.532-.038-.178-.033-.297-.052-.436l-.038-.259c.029-.048.024-.077.014-.134zm-5.747 18.37H10.862v-.734h12.277v.733zm-1.152-1.692H12V24.68h10l-.015 2.215zm.473-3.173H7.655a.833.833 0 01-.827-.839v-.627a.07.07 0 01.029-.058h.023v-.024h20.206a.098.098 0 01.028.058v.613a.847.847 0 01-.243.595.82.82 0 01-.588.244l-3.824.038zM10.152 12.264c0-2.472 1.3-4.757 3.41-5.993a6.733 6.733 0 016.819 0c2.11 1.236 3.409 3.52 3.409 5.993 0 .334-.023.667-.07.997H10.218a6.927 6.927 0 01-.066-.997zm-1.808 7.52l.992-2.838.778-2.233.17-.48h13.364l.945 2.718.991 2.842.473 1.351.033.091H7.839l.505-1.437v-.015zm16.825-5.546l-.208.863-.406-1.174a7.932 7.932 0 00-2.381-7.536 7.69 7.69 0 00-6.022-1.982 7.74 7.74 0 00-5.474 3.227 7.971 7.971 0 00-1.286 6.29l-.42 1.175-.203-.862a8.437 8.437 0 01-.231-1.97c.07-3.008 1.691-5.756 4.27-7.24a8.32 8.32 0 018.313 0c2.579 1.484 4.2 4.232 4.27 7.24a8.412 8.412 0 01-.222 1.97zM16.97.958c2.652.004 5.215.966 7.231 2.713a11.368 11.368 0 013.772 6.824.918.918 0 000 .12c.047.345.085.695.104 1.05v.78c0 .264 0 .523-.038.777 0 .11 0 .22-.038.33-.019.183-.043.365-.07.547 0 .134-.048.268-.072.397-.023.13-.06.312-.099.48a5.27 5.27 0 01-.113.426c-.043.14-.08.278-.128.417-.047.14-.094.292-.146.436-.052.144-.104.26-.156.389a8.074 8.074 0 01-.184.426c-.066.14-.123.25-.184.37-.061.119-.142.282-.217.421l-.217.36c-.085.133-.16.268-.25.397l-.652-1.869.548-2.281c.171-.72.257-1.459.255-2.2a9.576 9.576 0 00-3.135-7.123 9.283 9.283 0 00-7.33-2.349 9.35 9.35 0 00-6.597 4.006 9.628 9.628 0 00-1.426 7.666l.548 2.281-.652 1.87c-.075-.12-.151-.24-.222-.365-.07-.125-.165-.259-.24-.393-.076-.134-.142-.269-.208-.403-.067-.134-.133-.254-.194-.388a10.844 10.844 0 01-.34-.82c-.052-.139-.1-.277-.146-.416a5.95 5.95 0 01-.128-.437c-.038-.148-.075-.268-.109-.407a26.68 26.68 0 01-.103-.48 5.804 5.804 0 01-.071-.383c-.019-.13-.052-.379-.076-.57 0-.1-.023-.202-.032-.302 0-.273-.033-.551-.038-.83v-.775c0-.34.052-.68.103-1.016v-.12a11.368 11.368 0 013.784-6.85A11.062 11.062 0 0116.971.958zM3.42 12.268c0-1.206.16-2.407.472-3.57h1.511c-.038.125-.07.254-.109.384l-.085.34c0 .072-.033.144-.052.244-.018.1-.038.168-.056.278-.02.11-.033.177-.047.263-.015.087 0 .096 0 .144v.125a1.207 1.207 0 000 .13c0 .143-.038.287-.057.445-.019.158-.028.35-.038.522v.687a1.04 1.04 0 000 .12v.35c0 .21 0 .417.028.623.029.206.057.45.085.675 0 .106.024.211.043.317.052.334.122.665.208.991v.058c.08.307.17.609.273.91l.076.192c.09.25.184.48.288.743.038.082.08.163.123.249.099.22.202.436.32.652.053.09.11.182.161.278.113.196.231.393.36.589.06.096.131.192.202.292.07.1.184.273.283.408l-.533 1.524h-.119l-.316-.403a10.396 10.396 0 01-.67-.925 13.918 13.918 0 01-2.3-7.571l-.051-.063zM.944 26.57V12.84h1.54c0 .14 0 .273.033.408.033.134.024.364.042.546.02.182.052.436.085.652.033.215.052.36.085.537.033.177.09.43.142.647.052.215.075.35.123.522.047.172.127.427.193.637.067.211.104.336.166.48.061.144.165.426.25.637l.194.48c.066.162.212.43.321.642.109.21.137.287.212.426.133.23.274.48.416.681.066.115.132.23.203.34.222.33.472.657.704.959l.316.398v-.002a.969.969 0 00-.043.125v.067a.854.854 0 00-.024.22v.614c0 .477.187.934.52 1.271.331.337.782.526 1.251.526h3.4v2.214h-.684a.476.476 0 00-.473.48v1.284H9.85c-.12.027-.238.063-.354.105l-.095.039a2.354 2.354 0 00-.387.21l-.066.048a2.39 2.39 0 00-.288.25c0 .029-.052.053-.075.076a2.577 2.577 0 00-.274.36H4.07a3.108 3.108 0 01-2.201-.922 3.2 3.2 0 01-.926-2.227zm24.182 5.483H8.872V31.04a1.5 1.5 0 01.693-1.265c.247-.156.533-.237.823-.23h13.265c.07-.007.142-.007.212 0 .497.073.923.399 1.129.863.088.192.133.401.132.613v1.03zm7.928-5.483a3.2 3.2 0 01-.916 2.242 3.1 3.1 0 01-2.21.93h-4.22a2.552 2.552 0 00-.275-.359l-.07-.067a2.276 2.276 0 00-.303-.263l-.033-.039a2.706 2.706 0 00-.416-.225h-.028a2.767 2.767 0 00-.44-.134h-.06v-1.28a.483.483 0 00-.139-.339.468.468 0 00-.334-.14h-.665V24.68h3.338c.47 0 .921-.19 1.254-.526.333-.337.52-.794.522-1.271v-.628a1.11 1.11 0 000-.22s0-.044-.024-.068c-.024-.024 0-.086-.038-.124l.312-.403c.25-.311.472-.637.703-.958.071-.11.137-.225.208-.34.142-.226.283-.451.41-.681.076-.14.143-.283.213-.422.109-.215.222-.427.322-.647.099-.22.127-.311.193-.48.066-.167.175-.426.255-.646.08-.22.104-.326.156-.48a10.22 10.22 0 00.321-1.164c.038-.172.104-.436.142-.657.038-.22.056-.35.085-.527a9.47 9.47 0 00.085-.661c.018-.225.033-.36.042-.537.01-.177.029-.273.033-.412h1.577v13.74z" fill="#5B5D77"/></svg>