<svg width="31" height="33" fill="none" xmlns="http://www.w3.org/2000/svg"><path d="M30.851 9.117c-.53-2.576-1.918-4.153-2.483-4.705a8.257 8.257 0 00-5.913-2.479c-2.234 0-4.334.88-5.913 2.48-2.248 2.274-3.008 5.49-1.914 8.042-.04.101-.167.288-.255.417a4.486 4.486 0 00-.368.612c-.564-2.952-2.59-3.98-4.245-4.818-1.602-.812-2.869-1.453-2.973-3.47-.058-1.13.24-2.035.888-2.691 1.434-1.453 4.133-1.335 4.177-1.333a.58.58 0 00.606-.552.581.581 0 00-.545-.614c-.132-.008-3.244-.155-5.05 1.669-.89.9-1.304 2.105-1.228 3.581.14 2.697 1.903 3.59 3.61 4.453 1.428.724 2.793 1.416 3.412 3.179-.072-.034-.142-.07-.218-.1-1.78-.697-4.107-.084-5.8.583-.283-.698-.894-1.218-1.474-1.508-.714-.356-1.386-.382-1.804-.065-1.942 1.5-3.148 4.008-3.336 5.711-.077.697.022 1.217.294 1.546.49.593 1.045.785 1.586.785.604 0 1.191-.24 1.654-.427.172-.07.335-.137.483-.186.43-.145 1.327-.019 2.056.148-1.747 1.826-2.765 3.36-3.024 4.564-.593 1.998-.304 4.907 1.679 6.926C5.818 31.949 7.596 33 10.488 33c1.367 0 2.983-.235 4.89-.813 3.868-1.19 9.082-3.833 12.117-7.677l.017-.024c1.743-2.449 1.694-4.212 1.647-5.917-.02-.723-.04-1.407.083-2.139 1.432-3.08 2.072-5.064 1.61-7.314zm-2.686 6.885a.604.604 0 00-.046.145c-.158.879-.136 1.68-.114 2.455.044 1.577.085 3.067-1.421 5.19-2.874 3.634-8.013 6.191-11.54 7.277-5.39 1.634-8.127.343-9.474-1.027-1.655-1.685-1.889-4.12-1.386-5.787a.635.635 0 00.013-.05c.435-2.107 4.196-5.546 5.609-6.694a.588.588 0 00.088-.82.572.572 0 00-.81-.09c-.045.036-.94.766-2.034 1.819l-.002-.001c-.23-.07-2.279-.668-3.372-.299a9.849 9.849 0 00-.548.21c-.992.404-1.473.523-1.921-.017-.288-.46.439-3.705 2.828-5.566.115-.022.515.047.95.367.15.111.452.367.59.716-.668.314-1.108.567-1.166.601a.588.588 0 00-.212.797c.16.28.512.375.788.214a14.485 14.485 0 011.49-.74c1.646-.715 3.997-1.43 5.546-.824.668.262 1.141.747 1.438 1.477-.74.71-1.317 1.738-1.542 2.81-.222 1.06-.073 2.035.417 2.747.123.178.284.341.474.49l-2.312 4.91a.587.587 0 00.273.778.576.576 0 00.769-.276l2.28-4.843c2.229.934 5.937 1.027 7.305 1.027.213 0 .37-.003.454-.004a.58.58 0 00.566-.595.58.58 0 00-.587-.573c-2.339.042-6.082-.23-7.666-1.087a.556.556 0 00-.101-.062l-.027-.01a1.56 1.56 0 01-.482-.423c-.306-.444-.39-1.096-.234-1.836.222-1.063.9-2.1 1.674-2.575.174-.112.385-.162.734-.238.016.292.02.663.012.983a.582.582 0 00.451.586c.309.07.597.353.902.653l.011.011c-.858.216-1.428.404-1.509.43a.585.585 0 00.182 1.139.58.58 0 00.181-.03c.069-.023 6.907-2.275 10.217-.282a.573.573 0 00.79-.203.588.588 0 00-.2-.8c-2.274-1.369-5.767-1.055-8.244-.57-.203-.118-.409-.319-.624-.531-.286-.282-.602-.664-1.05-.74.019-.381.03-1.078-.061-1.417l-.005-.017c-.003-.014-.006-.03-.01-.042l-.01-.021a.626.626 0 00-.088-.159.592.592 0 00-.158-.138.526.526 0 00-.17-.067l-.035-.007a.558.558 0 00-.072-.007l-.026-.002a6.197 6.197 0 01-.311-.002c-.554-.02-.539-.007-.63-.15-.093-.143.177-.456.325-.674.266-.39.567-.832.439-1.35a.6.6 0 00-.036-.102c-.966-2.128-.31-4.88 1.632-6.845a7.118 7.118 0 015.097-2.137 7.13 7.13 0 015.105 2.144c.495.484 1.697 1.853 2.162 4.11.4 1.94-.21 3.76-1.556 6.644z" fill="#5B5D77"/><path d="M24.249 12.358c-.478-.399-1.173-.52-1.814-.315a.585.585 0 00-.377.732c.096.308.42.478.724.381.268-.086.556-.045.734.103.146.122.206.307.18.552-.047.415-.503.931-.958 1.082-.302.1-.411-.02-.458-.071a.572.572 0 00-.815-.034.588.588 0 00-.033.825c.291.32.674.486 1.095.486a1.8 1.8 0 00.57-.096c.882-.292 1.648-1.198 1.744-2.062.071-.634-.145-1.211-.592-1.583z" fill="#5B5D77"/></svg>