<svg width="33" height="33" fill="none" xmlns="http://www.w3.org/2000/svg"><path d="M6.835 5.244h-.023a.338.338 0 01-.314-.358C6.654 2.489 10.13 2.37 11.8 2.313c.135-.005.261-.008.373-.014a.89.89 0 00.667-.301c.395-.453.412-1.33.386-1.63A.338.338 0 0113.565 0h5.962a.337.337 0 01.337.383c0 .01-.124.997.322 1.552.177.218.42.337.743.366.173.014.378.025.617.037 1.687.088 4.82.251 4.971 2.539a.338.338 0 11-.675.044c-.103-1.559-2.29-1.803-4.334-1.91a21.156 21.156 0 01-.637-.039c-.513-.042-.922-.25-1.215-.617-.423-.521-.49-1.243-.49-1.68h-5.258c-.01.457-.101 1.24-.558 1.764a1.55 1.55 0 01-1.147.534c-.113.005-.241.01-.38.014-1.585.055-4.536.155-4.656 1.942a.337.337 0 01-.332.315z" fill="#5B5D77"/><path d="M32.663 28.681H.337A.337.337 0 010 28.344V4.927c0-.187.151-.338.337-.338h32.326a.337.337 0 01.337.338v23.417a.337.337 0 01-.337.337zM.675 28.006h31.65V5.264H.675v22.742z" fill="#5B5D77"/><path d="M23.012 33H10.055a.337.337 0 01-.337-.337v-4.32c0-.186.15-.337.337-.337h12.957a.337.337 0 01.338.338v4.319a.337.337 0 01-.338.337zm-12.62-.675h12.283v-3.644H10.393v3.644zm-4.319-1.863a2.132 2.132 0 01-2.129-2.129.337.337 0 01.675 0 1.454 1.454 0 102.909 0 .337.337 0 01.675 0 2.132 2.132 0 01-2.13 2.13zm20.854.018a2.15 2.15 0 01-2.148-2.146.337.337 0 01.675 0 1.472 1.472 0 002.945 0 .337.337 0 11.675 0 2.15 2.15 0 01-2.147 2.146zM6.79 16.129a.339.339 0 01-.33-.414c.679-2.961.619-7.566.618-7.613a.338.338 0 01.333-.342h.005c.184 0 .334.148.337.332 0 .192.062 4.732-.635 7.774a.338.338 0 01-.329.262zm-1.046 8.705a.338.338 0 01-.332-.28c-.845-4.843.459-7.583.516-7.696a.338.338 0 11.607.296c-.012.026-1.262 2.676-.458 7.288a.337.337 0 01-.333.392zm.906-1.822a.337.337 0 01-.31-.473c.847-1.957.27-4.28.262-4.303a.337.337 0 01.653-.168c.027.104.645 2.564-.295 4.74a.338.338 0 01-.31.204zm9.884-.337a.337.337 0 01-.338-.338V8.907a.337.337 0 01.675 0v13.43a.337.337 0 01-.337.338z" fill="#5B5D77"/><path d="M14.883 12.025c-1.08 0-2.287-.16-2.875-.793-.318-.343-.432-.796-.33-1.31.192-.96.81-1.733 1.797-2.234.444-.227.92-.385 1.413-.467a.34.34 0 01.094.675c-.093.013-2.274.337-2.638 2.16-.061.305-.01.533.162.717.594.64 2.482.657 3.92.479a.338.338 0 11.083.67c-.54.067-1.083.101-1.626.103z" fill="#5B5D77"/><path d="M13.97 14.08a8.4 8.4 0 01-.878-.046h-.018c-.965-.151-1.633-.529-1.984-1.12-.473-.79-.173-1.652-.16-1.687a.337.337 0 11.636.225c-.005.013-.202.612.107 1.124.245.405.748.675 1.498.792 1.84.189 3.19-.345 3.204-.35a.338.338 0 11.252.626c-.055.018-1.116.436-2.658.436z" fill="#5B5D77"/><path d="M13.159 15.927c-.915 0-1.914-.197-2.542-.755A1.8 1.8 0 0110 13.767a.337.337 0 01.675 0c-.014.345.13.678.39.904.603.534 1.83.658 2.778.543.802-.097 1.711-.208 2.487-.54a.338.338 0 11.27.62c-.865.373-1.826.489-2.673.592a6.368 6.368 0 01-.77.04zm-.535 1.909c-2.077 0-2.583-1.399-2.605-1.462a.337.337 0 11.637-.223c.02.053.457 1.165 2.366.991 2.13-.194 3.264-.828 3.275-.834a.338.338 0 11.333.586c-.05.029-1.272.714-3.547.92a4.958 4.958 0 01-.459.022zm-.164 2.871c-.121 0-.241-.008-.36-.025-.855-.122-1.538-.732-1.87-1.674a.338.338 0 01.636-.225c.117.33.479 1.11 1.33 1.231 1.153.165 1.957-.731 2.252-1.125.058-.076.115-.156.171-.234.438-.608.933-1.293 1.873-1.41a.337.337 0 01.084.67c-.649.08-1 .569-1.41 1.135a13.66 13.66 0 01-.177.243c-.673.904-1.598 1.415-2.53 1.415zm4.006 4.667c-1.388 0-2.23-.607-2.818-2.03-.448-1.089-1.68-.945-1.733-.945-.579.082-1.005.315-1.263.69-.477.693-.263 1.657-.26 1.666a.337.337 0 11-.659.151c-.011-.05-.28-1.265.363-2.2.368-.54.95-.865 1.729-.976.622-.082 1.929.095 2.448 1.35.55 1.344 1.274 1.62 2.193 1.62a.338.338 0 010 .674zM13.71 9.804c-3.375 0-4.725-1.267-4.792-1.329a.337.337 0 01.467-.486c.026.024 1.66 1.5 5.857 1.056a.339.339 0 01.077.672c-.535.058-1.072.087-1.61.087zm12.57 6.325a.337.337 0 01-.329-.262c-.697-3.042-.637-7.582-.634-7.774a.337.337 0 01.337-.332h.006a.337.337 0 01.332.342c0 .046-.06 4.652.618 7.613a.338.338 0 01-.33.413zm1.045 8.705a.337.337 0 01-.333-.395c.42-2.41.27-4.262.076-5.392-.214-1.224-.531-1.89-.534-1.893a.338.338 0 01.608-.297c.056.114 1.36 2.853.517 7.697a.337.337 0 01-.334.28zm-.905-1.822a.337.337 0 01-.31-.203c-.94-2.173-.323-4.636-.296-4.74a.338.338 0 11.654.17c-.01.037-.583 2.352.26 4.302a.338.338 0 01-.309.472v-.001zm-8.233-10.987a13.529 13.529 0 01-1.623-.105.337.337 0 01.083-.67c1.437.179 3.327.161 3.92-.478.171-.185.223-.413.163-.718-.366-1.826-2.546-2.149-2.64-2.16a.337.337 0 11.092-.668c.492.081.968.238 1.413.464.983.501 1.604 1.274 1.796 2.234.103.514-.012.967-.33 1.31-.588.63-1.797.791-2.874.791z" fill="#5B5D77"/><path d="M19.103 14.08c-1.545 0-2.605-.418-2.657-.439a.337.337 0 11.252-.626c.012.005 1.375.54 3.204.35.753-.12 1.258-.389 1.501-.798.306-.513.107-1.111.105-1.117a.338.338 0 01.636-.226c.012.036.31.897-.16 1.687-.353.592-1.02.968-1.986 1.12h-.018a8.552 8.552 0 01-.877.05z" fill="#5B5D77"/><path d="M19.908 15.927c-.255 0-.51-.015-.764-.046-.848-.103-1.808-.22-2.673-.592a.338.338 0 11.27-.62c.775.338 1.687.445 2.487.54.948.116 2.174-.008 2.776-.543a1.14 1.14 0 00.39-.899.337.337 0 01.674 0 1.8 1.8 0 01-.617 1.409c-.628.557-1.627.75-2.543.75zm.539 1.909a4.95 4.95 0 01-.459-.022c-2.274-.206-3.497-.891-3.547-.92a.338.338 0 01.337-.586c.01.006 1.159.642 3.274.834 1.915.174 2.348-.944 2.366-.992a.338.338 0 01.637.224c-.028.063-.534 1.462-2.608 1.462z" fill="#5B5D77"/><path d="M20.61 20.708c-.932 0-1.856-.511-2.53-1.417-.06-.08-.119-.161-.177-.243-.409-.566-.76-1.055-1.41-1.136a.338.338 0 01.084-.67c.94.118 1.436.805 1.873 1.41.057.08.113.158.17.235.294.393 1.1 1.29 2.253 1.125.85-.122 1.215-.902 1.33-1.232a.337.337 0 01.636.226c-.332.941-1.012 1.552-1.87 1.673a2.444 2.444 0 01-.359.029zm-4.005 4.666a.338.338 0 010-.675c.917 0 1.641-.275 2.194-1.614.518-1.257 1.825-1.434 2.444-1.35.782.112 1.364.441 1.733.978.642.935.374 2.149.362 2.2a.337.337 0 11-.659-.15c0-.01.213-.983-.262-1.672-.258-.372-.684-.603-1.266-.686-.047-.006-1.282-.146-1.729.944-.587 1.418-1.43 2.025-2.817 2.025zm2.755-15.57c-.537 0-1.074-.03-1.607-.086a.337.337 0 01.071-.671c4.21.446 5.84-1.04 5.856-1.055a.337.337 0 11.469.485c-.064.06-1.415 1.327-4.79 1.327zM2.362 9.583a.337.337 0 01-.338-.338V6.951c0-.187.152-.338.338-.338h2.294a.337.337 0 010 .675H2.7v1.957a.337.337 0 01-.337.338zm28.411 0a.337.337 0 01-.338-.338V7.288h-1.957a.337.337 0 010-.675h2.294a.337.337 0 01.338.338v2.294a.337.337 0 01-.337.338zm0 17.006h-2.295a.338.338 0 010-.675h1.957v-1.957a.337.337 0 11.675 0v2.294a.337.337 0 01-.337.338zm-26.117 0H2.362a.338.338 0 01-.338-.337v-2.295a.338.338 0 01.675 0v1.957h1.957a.337.337 0 010 .675z" fill="#5B5D77"/></svg>