<svg width="33" height="33" fill="none" xmlns="http://www.w3.org/2000/svg"><path d="M15.511 2.86c0-.382-.16-.749-.447-1.026-.68-.65-2.042-1.738-3.487-1.797C9.665-.022 7.914.781 7.333 1.99c-.283.588-.382 1.446.264 2.551a2.688 2.688 0 00-2.432.296c-1.266.893-1.571 2.821-.99 3.888.1.185.214.38.332.58a2.606 2.606 0 00-1.35.042c-.913.317-1.601 1.537-1.613 2.548-.002.386.073.77.222 1.133a2.75 2.75 0 00-1.147 1.13 3.19 3.19 0 00.076 2.856 2.988 2.988 0 001.335 1.39 1.816 1.816 0 00-.8.417c-.922.896-1.36 2.118-1.196 3.336.145 1.238.807 2.353 1.728 2.913.32.183.716.225 1.075.114a2.205 2.205 0 00-.303 1.738c.303 1.074 1.61 1.967 3.988 2.728.895 2.92 3.35 3.315 4.394 3.35h.382c1.743-.06 3.342-.89 3.732-1.988.218-.622.352-3.5.424-7.215a.266.266 0 000-.08c.153-7.37.08-17.96.057-20.858zm-1.258 27.919c-.221.622-1.204 1.258-2.466 1.432.195-1.098.321-3.215.107-3.892-.256-.82-1.705-1.954-1.87-2.086a.439.439 0 00-.58.042.352.352 0 00.045.528c.547.42 1.468 1.262 1.614 1.738.183.584.023 2.864-.16 3.736-2.62-.084-3.442-2.117-3.687-2.989a.385.385 0 00-.263-.26c-2.203-.695-3.441-1.45-3.671-2.28-.268-.96.807-2.026 1.759-2.968.298-.296.581-.577.822-.851a.347.347 0 00-.046-.522.436.436 0 00-.573.042 7.383 7.383 0 01-.325.348c-1.029 1.042-2.272 1.907-2.719 1.636C1.529 24 .99 23.067.875 22.06c-.145-1.003.21-2.012.967-2.753.364-.347 1.11-.347 2.233-.33h.494a.406.406 0 00.385-.26.354.354 0 00-.152-.414 1.345 1.345 0 00-.577-.129c-.765-.08-2.168-.233-2.765-1.466a2.513 2.513 0 01-.073-2.259c.169-.324.434-.598.765-.793a4.832 4.832 0 001.679 1.39.414.414 0 00.295.045.38.38 0 00.24-.162c.114-.175.05-.4-.141-.505-1.22-.65-1.881-1.55-1.87-2.536 0-.737.573-1.662 1.197-1.908.623-.247 1.147.07 1.575.306 1.116 1.696 2.611 3.538 3.659 3.962a.37.37 0 00-.203.173c-.107.191-1.017 1.912-1.147 2.579a.339.339 0 00.068.275c.063.08.158.133.265.149h.069c.198-.001.368-.131.401-.31.28-.819.638-1.615 1.067-2.38a.32.32 0 000-.33c.822.192 1.69.143 2.478-.143.203-.085.292-.305.198-.49-.094-.185-.335-.266-.539-.18a3.394 3.394 0 01-2.336 0c-1.048-.424-3.059-3.076-4.206-5.189-.424-.778-.153-2.335.765-2.978 1.024-.727 2.367 0 3.315.74a.435.435 0 00.573-.02.346.346 0 00-.023-.522C8.147 4.357 7.646 3.189 8.082 2.289c.436-.9 1.912-1.557 3.472-1.508 1.2.034 2.443 1.105 2.921 1.567a.736.736 0 01.23.521c0 2.329.03 5.07.03 7.91a4.344 4.344 0 00-1.422-.84 7.254 7.254 0 00-2.275-.46.436.436 0 00-.315.095.358.358 0 00-.134.276c0 .105.049.205.134.275.086.07.2.105.315.095.814 0 3.192.438 3.62 1.849a.377.377 0 00.073.121c0 1.957 0 3.934-.023 5.835-.657.17-2.5-.278-2.894-.48a.441.441 0 00-.309-.03.4.4 0 00-.242.177.321.321 0 00-.045.282.36.36 0 00.202.218 9.155 9.155 0 002.88.605 3.73 3.73 0 00.381-.025c0 1.651-.03 3.232-.057 4.678-.792.132-2.806.247-3.766-.209h-.034c-.96-.347-2.008-2.085-2.325-2.943a.376.376 0 00-.199-.235.444.444 0 00-.325-.025.394.394 0 00-.24.2.338.338 0 000 .296c.309.848 1.437 2.87 2.767 3.382a6.324 6.324 0 002.505.396c.544 0 1.087-.036 1.625-.108-.073 3.492-.195 6.047-.379 6.575zM31.8 18.79a1.785 1.785 0 00-.517-.31 2.35 2.35 0 001.029-.962c.409-.74.852-3.034-1.017-4.289a2.994 2.994 0 00-.062-2.837c-.496-.888-1.411-1.521-2.485-1.719.688-1.042.31-2.832-.799-3.729a2.74 2.74 0 00-1.25-.55 2.873 2.873 0 00-1.384.109 2.42 2.42 0 00.21-2.193C24.963.92 23.047-.057 21.067.003c-1.53.041-2.93 1.16-3.64 1.824-.27.251-.427.587-.436.938V5.73a.362.362 0 000 .059v.139c-.038 7.551-.05 23.499.527 25.073.383 1.043 2.038 1.773 3.74 1.773.282 0 .563-.02.841-.063 1.594-.246 2.927-1.236 3.51-2.606 1.017-.111 4.795-1.665 4.795-3.823a3.535 3.535 0 00-.13-.903c1.288-.437 2.245-1.438 2.539-2.659.454-1.38.069-2.877-1.013-3.93zm.225 3.746c-.23.983-.992 1.794-2.026 2.151-.711-1.533-2.294-2.822-3.766-2.822h-.21c-2.104 0-3.996-.139-4.088-1.95-.01-.203-.199-.36-.423-.352-.224.009-.397.18-.388.384.13 2.669 3.231 2.658 4.898 2.655h.21c1.656 0 3.334 2.148 3.334 3.687 0 1.47-2.596 2.693-3.682 3.01a8.198 8.198 0 00.272-2.356c-.012-.196-.19-.348-.405-.348-.218.01-.387.174-.383.372.066 3.916-2.106 4.837-3.406 5.039a4.98 4.98 0 01-2.402-.236h-.034l1.816-1.947a.35.35 0 00.111-.27.357.357 0 00-.137-.26.433.433 0 00-.582.044l-1.954 2.03a1.363 1.363 0 01-.497-.588c-.149-.407-.256-2.02-.332-4.34a.438.438 0 00.233-.084 18.262 18.262 0 013.823-.695c.21-.018.37-.178.37-.37 0-.191-.16-.352-.37-.37a19.263 19.263 0 00-4.106.74 357.314 357.314 0 01-.111-6.867.41.41 0 00.103-.104c.195-.23 1.648-1.269 2.742-1.467.22-.04.362-.233.32-.433-.044-.2-.257-.329-.477-.29-.99.252-1.91.692-2.7 1.29a723.856 723.856 0 010-9.32v-.001c.145.201.314.387.505.553.738.6 1.77.896 3.14.896.198 0 .409 0 .623-.017.224-.013.395-.189.382-.393a.357.357 0 00-.136-.256.432.432 0 00-.296-.091c-1.453.083-2.49-.143-3.166-.695-.677-.553-.967-1.342-1.048-2.572 0-1.095 0-2.144.02-3.128a.631.631 0 01.21-.455c.5-.452 1.8-1.547 3.082-1.585 1.617-.045 3.23.754 3.69 1.828.382.928-.127 1.95-1.469 2.958l-.061.034a.346.346 0 00-.072.528.432.432 0 00.584.041l.07-.047C25.283 5 26.56 4.795 27.428 5.493c.868.699 1.094 2.159.627 2.822a6.89 6.89 0 01-.864.938 9.493 9.493 0 00-1.082 1.158 5.686 5.686 0 00-.822 2.346h-4.24c-.224 0-.406.164-.406.368 0 .203.182.368.406.368h4.14a14.693 14.693 0 00-.083 1.606c0 .203.181.368.405.368.223 0 .405-.165.405-.368 0-1.436.23-3.413.868-4.271.295-.378.624-.734.983-1.064.149-.142.29-.285.428-.424.49.03.963.177 1.372.426.408.248.736.591.953.992a2.237 2.237 0 010 2.242 9.6 9.6 0 01-1.633 1.692.348.348 0 000 .522.422.422 0 00.287.107.403.403 0 00.287-.107 15.59 15.59 0 001.387-1.356c1.69 1.165.765 3.32.738 3.34-.52.949-1.965.99-2.745 1.011a1.473 1.473 0 00-.703.108c-.175.08-.262.262-.206.433.055.17.237.28.431.262h.516c1.174 0 1.95 0 2.336.348.834.701 1.159 1.966.811 3.176z" fill="#5B5D77"/></svg>