<svg width="36" height="33" fill="none" xmlns="http://www.w3.org/2000/svg"><path d="M18.07 20.018c-1.59 0-3.18-.617-4.728-1.828-1.404-1.101-2.74-2.67-3.975-4.658C7.079 9.85 5.32 5 4.546.227l.829-.225c1.48 9.1 6.753 18.921 12.7 18.921 3.53 0 6.325-3.303 8.047-6.078 2.207-3.55 3.903-8.23 4.651-12.844l.83.231c-.779 4.773-2.538 9.623-4.822 13.306-1.235 1.988-2.575 3.557-3.975 4.658-1.556 1.206-3.146 1.823-4.736 1.823z" fill="#5B5D77"/><path d="M26.467 31.278c-.761-1.701-1.294-3.683-1.577-5.89-.228-1.751-.305-3.65-.224-5.644.135-3.385.664-5.84.685-5.94l.812.303c-.004.022-.529 2.46-.656 5.726-.114 2.983.085 7.3 1.692 10.9l-.732.545z" fill="#5B5D77"/><path d="M35.805 33c-6.3-1.927-8.378-3.287-9.752-4.19-.148-.099-.287-.187-.418-.27l.372-.99c.14.088.279.181.431.28 1.34.881 3.362 2.208 9.562 4.102L35.805 33zM9.527 31.276l-.732-.556c1.611-3.606 1.81-7.933 1.691-10.923-.13-3.259-.647-5.676-.655-5.698l.812-.303c.021.105.55 2.56.685 5.94.08 1.994.004 3.893-.224 5.644-.284 2.213-.816 4.195-1.577 5.896zm3.983-1.812l-.811-.3c.467-2.13.675-4.539.62-7.153l.846-.028c.053 2.725-.163 5.242-.654 7.482z" fill="#5B5D77"/><path d="M.195 32.999L0 31.925c6.23-1.905 8.246-3.232 9.582-4.112l.41-.265.373.991c-.127.083-.263.171-.402.259-1.37.903-3.442 2.268-9.769 4.2z" fill="#5B5D77"/></svg>