<svg width="34" height="33" fill="none" xmlns="http://www.w3.org/2000/svg"><path d="M19.47.054a56.617 56.617 0 00-16.136 1.62 1.604 1.604 0 00-1.141 2.044A37.137 37.137 0 013.76 18.606a9.245 9.245 0 01-1.71 4.274 7.915 7.915 0 00-.902 1.59A14.73 14.73 0 00.002 29.5a1.603 1.603 0 001.226 1.638 67.724 67.724 0 0031.541 0A1.602 1.602 0 0034 29.5a14.732 14.732 0 00-1.148-5.03 7.92 7.92 0 00-.903-1.59 9.246 9.246 0 01-1.71-4.274 37.143 37.143 0 011.57-14.888 1.605 1.605 0 00-1.143-2.044A56.627 56.627 0 0019.47.054h-.001zm-.028.642c3.734.163 7.441.7 11.068 1.6a.962.962 0 01.685 1.228A37.783 37.783 0 0029.6 18.677a9.886 9.886 0 001.83 4.582 7.3 7.3 0 01.83 1.462 14.09 14.09 0 011.097 4.81.963.963 0 01-.736.983 67.083 67.083 0 01-31.244 0 .963.963 0 01-.735-.983 14.08 14.08 0 011.097-4.81 7.3 7.3 0 01.83-1.462 9.89 9.89 0 001.83-4.582A37.783 37.783 0 002.803 3.524a.963.963 0 01.686-1.227A55.972 55.972 0 0119.442.696z" fill="#5B5D77"/><path d="M17.179 20.54v-1.774a.321.321 0 00-.642 0v1.773a.32.32 0 00.642 0z" fill="#5B5D77"/></svg>