<svg width="35" height="33" fill="none" xmlns="http://www.w3.org/2000/svg"><path d="M14.629.005a.419.419 0 00-.476.335c-.492 2.85-1.787 2.897-2.929 2.939l-.128.005c-2.406.098-8.795.36-8.61 9.051.117 5.547-1 10.408-1.68 12.81a20.143 20.143 0 00-.707 4.087c-.092 1.335-.117 2.464-.087 3.36.01.222.19.398.41.398h.015a.413.413 0 00.394-.428c-.03-.866 0-1.969.087-3.278.087-1.32.318-2.64.676-3.918.691-2.443 1.828-7.397 1.71-13.046-.148-6.99 4.106-8.057 7.828-8.212l.128-.005c1.234-.046 3.097-.113 3.706-3.623a.416.416 0 00-.337-.475z" fill="#5B5D77"/><path d="M8.152 11.53a.407.407 0 00-.496-.299.41.41 0 00-.297.5c.328 1.3.379 2.845.164 4.732-.205.603-2.166 6.423-2.166 8.871 0 3.732-.85 7.103-.855 7.134a.419.419 0 00.4.52.415.415 0 00.399-.309c.036-.139.88-3.5.88-7.34 0-1.664 1.024-5.175 1.654-7.17.286 1.562.65 3.969.46 5.47-.158 1.257-.455 2.308-.772 3.422-.45 1.582-.917 3.216-.968 5.51a.413.413 0 00.4.423h.01c.22 0 .404-.18.41-.402.045-2.186.496-3.768.931-5.299.312-1.093.635-2.227.799-3.546.297-2.372-.64-6.63-.768-7.206.225-1.985.163-3.624-.185-5.01zm26.744 17.702a20.229 20.229 0 00-.706-4.087c-.676-2.402-1.792-7.263-1.68-12.805.185-8.69-6.204-8.953-8.61-9.051l-.129-.005c-1.141-.042-2.431-.088-2.928-2.939a.41.41 0 10-.809.144c.61 3.511 2.473 3.578 3.707 3.625l.128.005c3.721.154 7.97 1.221 7.827 8.21-.117 5.65 1.02 10.599 1.71 13.047.359 1.279.59 2.598.676 3.918.087 1.304.118 2.407.087 3.278a.413.413 0 00.394.428h.016c.22 0 .399-.175.41-.397.03-.907-.001-2.041-.093-3.37z" fill="#5B5D77"/><path d="M29.65 25.336c0-2.449-1.961-8.268-2.166-8.871-.22-1.887-.164-3.439.164-4.732a.41.41 0 00-.297-.5.407.407 0 00-.497.299c-.348 1.392-.41 3.026-.184 5.005-.133.577-1.065 4.835-.768 7.206.164 1.32.486 2.453.799 3.546.435 1.531.885 3.113.931 5.299a.41.41 0 00.41.402h.01a.413.413 0 00.4-.423c-.052-2.294-.518-3.928-.968-5.51-.317-1.114-.615-2.165-.773-3.423-.19-1.5.174-3.907.46-5.469.63 1.995 1.654 5.505 1.654 7.17 0 3.84.845 7.201.88 7.34a.41.41 0 00.4.31.416.416 0 00.4-.52c-.01-.026-.856-3.393-.856-7.13zM19.518 8.655h.087a.412.412 0 000-.825h-.087v-.02a.967.967 0 00-.394-.778.926.926 0 00-.84-.14 2.541 2.541 0 01-1.566 0 .925.925 0 00-.84.14.974.974 0 00-.394.778v.02h-.082a.412.412 0 000 .825h.087v.072c0 .222.077.423.204.588a.986.986 0 00-.204.588v.02h-.087a.412.412 0 000 .825h.087v.072c0 .222.077.423.204.588a.986.986 0 00-.204.588v.02h-.087a.412.412 0 000 .825h.087v.072a.96.96 0 00.204.588.986.986 0 00-.204.587v.02h-.087a.412.412 0 000 .825h.087v.073c0 .221.077.422.204.587a.986.986 0 00-.204.588v.02h-.087a.412.412 0 000 .825h.087v.073c0 .221.077.422.204.587a.986.986 0 00-.204.588v.02h-.087a.412.412 0 000 .825h.087v.072c0 .222.077.423.204.588a.986.986 0 00-.204.588v.02h-.087a.412.412 0 000 .825h.087v.072c0 .222.077.423.204.588a.986.986 0 00-.204.588v.02h-.087a.412.412 0 000 .825h.087v.072c0 .221.077.422.204.588a.986.986 0 00-.204.587v.02h-.087a.412.412 0 000 .825h.087v.072c0 .222.077.423.204.588a.986.986 0 00-.204.588v.02h-.087a.412.412 0 000 .825h.087v.072c0 .222.077.423.204.588a.986.986 0 00-.204.588v.02h-.087a.412.412 0 000 .825h.087v.072c0 .222.077.423.204.588a.986.986 0 00-.204.588v.02h-.087a.412.412 0 000 .825h.087v.072c0 .366.2.696.507.85a3.411 3.411 0 003.01 0 .954.954 0 00.507-.85v-.072h.087a.412.412 0 000-.825h-.087v-.02a.963.963 0 00-.205-.588.951.951 0 00.205-.588v-.072h.087a.412.412 0 000-.825h-.087v-.02a.963.963 0 00-.205-.588.952.952 0 00.205-.588v-.072h.087a.412.412 0 000-.825h-.087v-.02a.963.963 0 00-.205-.588.952.952 0 00.205-.588v-.072h.087a.412.412 0 000-.825h-.087v-.02a.963.963 0 00-.205-.588.951.951 0 00.205-.588v-.072h.087a.412.412 0 000-.825h-.087v-.02a.963.963 0 00-.205-.588.951.951 0 00.205-.588v-.072h.087a.412.412 0 000-.825h-.087v-.02a.963.963 0 00-.205-.588.952.952 0 00.205-.588v-.072h.087a.412.412 0 000-.825h-.087v-.02a.963.963 0 00-.205-.588.952.952 0 00.205-.588v-.072h.087a.412.412 0 000-.824h-.087v-.021a.963.963 0 00-.205-.588.951.951 0 00.205-.588v-.072h.087a.412.412 0 000-.824h-.087v-.02a.963.963 0 00-.205-.589.951.951 0 00.205-.587v-.073h.087a.412.412 0 000-.824h-.087v-.02a.963.963 0 00-.205-.589.952.952 0 00.205-.587v-.073h.087a.412.412 0 000-.824h-.087v-.02a.963.963 0 00-.205-.589.952.952 0 00.205-.587v-.07h.005zm-1.234 21.289a2.54 2.54 0 01-1.566 0 .896.896 0 00-.23-.041.383.383 0 00-.134-.104c-.03-.015-.051-.061-.051-.113v-.917c0-.067.04-.103.056-.114a.118.118 0 01.107-.02 3.356 3.356 0 002.064 0 .109.109 0 01.107.02c.015.016.056.047.056.114v.917c0 .046-.02.098-.05.113a.442.442 0 00-.134.104 1.27 1.27 0 00-.225.04zm.25-18.077a.109.109 0 01.108.02c.016.016.057.047.057.114v.917c0 .046-.02.098-.052.113a2.575 2.575 0 01-2.283 0c-.03-.015-.051-.061-.051-.113v-.917c0-.067.04-.103.056-.114a.118.118 0 01.108-.02 3.34 3.34 0 002.058 0zm0 4.19a.109.109 0 01.108.02c.016.016.057.047.057.114v.918c0 .046-.02.098-.052.113a2.575 2.575 0 01-2.283 0c-.03-.015-.051-.062-.051-.113v-.918c0-.067.04-.103.056-.113a.118.118 0 01.108-.02 3.34 3.34 0 002.058 0zm0 4.196a.109.109 0 01.108.02c.016.016.057.047.057.114v.918c0 .046-.02.098-.052.113a2.587 2.587 0 01-2.288 0c-.03-.015-.051-.062-.051-.113v-.918c0-.067.04-.103.056-.113a.118.118 0 01.107-.02 3.357 3.357 0 002.064 0zm0 4.191a.109.109 0 01.108.02c.016.016.057.047.057.114v.917c0 .047-.02.098-.052.114a2.587 2.587 0 01-2.288 0c-.03-.016-.051-.062-.051-.114v-.917c0-.067.04-.103.056-.113a.118.118 0 01.107-.021 3.357 3.357 0 002.064 0zm-.25 3.407a2.54 2.54 0 01-1.566 0 .896.896 0 00-.23-.04.383.383 0 00-.134-.104c-.03-.015-.051-.062-.051-.113v-.918c0-.067.04-.103.056-.113a.135.135 0 01.107-.02c.01.005.02 0 .036.005.323.097.66.154.999.154.338 0 .67-.057.998-.155.01-.005.02 0 .036-.005a.109.109 0 01.108.021c.015.015.056.046.056.113v.918c0 .046-.02.098-.051.113a.442.442 0 00-.133.103.724.724 0 00-.23.041zm0-4.196a2.54 2.54 0 01-1.566 0 .896.896 0 00-.23-.04.383.383 0 00-.134-.104c-.03-.015-.051-.062-.051-.113v-.918c0-.067.04-.103.056-.113a.135.135 0 01.107-.02c.01.005.02 0 .036.005.323.098.66.154.999.154.338 0 .67-.057.998-.154.01-.006.02 0 .036-.006a.109.109 0 01.108.021c.015.015.056.046.056.113v.918c0 .046-.02.098-.051.113a.365.365 0 00-.128.103c-.082.005-.159.02-.236.041zm0-4.19a2.54 2.54 0 01-1.566 0 .896.896 0 00-.23-.041.383.383 0 00-.134-.104c-.03-.015-.051-.061-.051-.113v-.917c0-.067.04-.103.056-.114a.114.114 0 01.107-.02c.01.005.026 0 .036.005.323.098.66.154.999.154.338 0 .67-.056.998-.154.01-.005.026 0 .036-.005a.109.109 0 01.108.02c.015.016.056.047.056.114v.917c0 .046-.02.098-.051.113a.442.442 0 00-.133.104.896.896 0 00-.23.04zm0-4.19a2.54 2.54 0 01-1.566 0 .896.896 0 00-.23-.042.383.383 0 00-.134-.103c-.03-.016-.051-.062-.051-.114V14.1c0-.067.04-.103.056-.113a.114.114 0 01.107-.02c.01.004.026 0 .036.004.323.098.66.155.999.155.338 0 .67-.057.998-.155.01 0 .026 0 .036-.005a.109.109 0 01.108.02c.015.016.056.047.056.114v.918c0 .046-.02.098-.051.113a.442.442 0 00-.133.103.724.724 0 00-.23.041zm0-4.197a2.54 2.54 0 01-1.566 0 .896.896 0 00-.23-.041.383.383 0 00-.134-.103c-.03-.015-.051-.062-.051-.113v-.918c0-.067.04-.103.056-.113a.114.114 0 01.107-.02c.01.004.026 0 .036.004.323.098.66.155.999.155.338 0 .67-.057.998-.155.01-.005.026 0 .036-.005a.109.109 0 01.108.02c.015.016.056.047.056.114v.918c0 .046-.02.098-.051.113a.442.442 0 00-.133.103 1.2 1.2 0 00-.23.041zm-1.976-3.273c0-.067.04-.103.056-.113a.118.118 0 01.108-.021 3.356 3.356 0 002.063 0 .109.109 0 01.107.02c.016.016.057.047.057.114v.917c0 .047-.02.098-.052.114a2.576 2.576 0 01-2.283 0c-.03-.016-.051-.062-.051-.114v-.917h-.005zm2.386 23.979c0 .046-.02.098-.052.113a2.587 2.587 0 01-2.288 0c-.03-.015-.051-.061-.051-.113v-.918a.136.136 0 01.128-.139c.01 0 .02 0 .035.005a3.358 3.358 0 002.064 0 .109.109 0 01.107.02c.015.016.056.047.056.114v.918z" fill="#5B5D77"/></svg>