<svg width="29" height="33" fill="none" xmlns="http://www.w3.org/2000/svg"><path d="M28.626 26.204c-.195 0-.358-.165-.358-.396v-2.144c0-2.804 0-2.804-.196-7.456-.065-1.088-.097-2.408-.195-4.09-.13-2.673-.293-6.335-2.931-8.116-.977-.66-2.15-.924-3.42-1.188-1.693-.363-3.42-.759-4.591-2.177a.405.405 0 01.032-.528.392.392 0 01.521.033c1.01 1.22 2.54 1.55 4.169 1.913 1.302.297 2.605.594 3.68 1.32 2.93 2.012 3.126 6.037 3.256 8.742.066 1.683.13 3.002.196 4.091.228 4.652.228 4.652.195 7.489v2.111c0 .198-.163.396-.358.396zm-3.061 0a.383.383 0 01-.358-.297l-1.01-5.674a.373.373 0 01.293-.43.369.369 0 01.424.298l1.01 5.641a.373.373 0 01-.294.43c-.032.032-.065.032-.065.032zM24.491 33a.34.34 0 01-.326-.231l-.488-1.023c-1.954-4.19-2.443-8.973-1.335-13.46.065-.198.26-.33.456-.264.195.066.325.264.26.462a19.765 19.765 0 001.303 12.965l.488 1.023c.098.198 0 .429-.163.495-.097.033-.163.033-.195.033zM4.494 33c-.066 0-.098 0-.163-.033-.196-.099-.26-.33-.163-.495l.488-1.022c1.89-4.025 2.345-8.61 1.303-12.966-.065-.198.065-.395.26-.461.196-.067.391.066.456.264 1.075 4.486.62 9.27-1.335 13.46l-.488 1.022c-.065.165-.195.23-.358.23zM.358 26.204c-.195 0-.358-.165-.358-.396v-2.111c0-2.837 0-2.837.195-7.49.066-1.088.098-2.407.196-4.09.13-2.672.293-6.73 3.256-8.742 1.075-.726 2.378-1.023 3.648-1.32 1.628-.363 3.159-.693 4.168-1.914.13-.165.359-.197.522-.032.162.131.195.362.032.527-1.172 1.419-2.898 1.815-4.592 2.178-1.27.264-2.442.528-3.42 1.187-2.637 1.782-2.8 5.444-2.93 8.116a195.07 195.07 0 01-.196 4.09c-.162 4.685-.162 4.685-.13 7.49v2.143c0 .166-.163.363-.39.363zm3.062 0h-.065a.372.372 0 01-.293-.43l1.01-5.706a.368.368 0 01.423-.297.372.372 0 01.293.429l-1.01 5.674c0 .198-.163.33-.358.33z" fill="#5B5D77"/><path d="M19.442 18.088c-1.921 0-3.973-1.22-5.015-2.573-1.075 1.419-3.29 2.672-5.276 2.54a4.853 4.853 0 01-3.68-2.045c-1.14-1.617-1.498-3.893-.912-6.136.065-.198.26-.33.456-.264s.326.264.26.462c-.52 2.012-.227 4.058.782 5.51.75 1.055 1.857 1.682 3.127 1.748 1.889.099 4.136-1.32 4.918-2.672a.358.358 0 01.325-.198c.13 0 .26.066.326.197.782 1.353 3.029 2.772 4.918 2.673 1.27-.066 2.377-.693 3.126-1.749 1.01-1.418 1.303-3.464.782-5.51-.065-.197.065-.395.26-.461.196-.066.391.066.456.264.586 2.243.228 4.52-.912 6.136-.879 1.22-2.182 1.98-3.68 2.045-.098.033-.196.033-.26.033z" fill="#5B5D77"/><path d="M9.282 13.8a.492.492 0 01-.489.494.492.492 0 01-.488-.495c0-.273.218-.494.488-.494s.489.221.489.494zm11.203 0a.492.492 0 01-.488.494.492.492 0 01-.49-.495c0-.273.22-.494.49-.494s.488.221.488.494z" fill="#5B5D77"/></svg>