<svg width="33" height="33" fill="none" xmlns="http://www.w3.org/2000/svg"><path d="M30.47 11.634c-.177-.915-.378-1.952-.777-3.019-.406-1.088-1.166-1.847-2.197-2.197-1.438-.487-3.06-.069-3.754.386-.8.523-2.04.702-2.387.742-.306-.854-1.05-1.514-1.553-1.875.338-.316.553-.766.553-1.27a1.73 1.73 0 00-.77-1.445c.409-.294.677-.78.677-1.33C20.262.73 19.552 0 18.678 0h-4.099c-.873 0-1.584.73-1.584 1.627 0 .55.27 1.035.679 1.33a1.733 1.733 0 00-.325 2.605c-.49.332-1.368 1.044-1.703 1.986-.346-.042-1.584-.22-2.387-.744-.695-.453-2.318-.873-3.755-.386-1.031.35-1.791 1.109-2.197 2.197-.398 1.067-.6 2.104-.777 3.019-.308 1.589-.574 2.96-1.73 4.005-.804.728-1.014 1.828-.575 3.02.587 1.596 2.36 3.245 4.314 3.245 2.545 0 4.872 1.972 5.372 3.741l.046.163c.498 1.779 1.425 5.076 5.063 5.272v.246c0 .579.253 1.674 1.211 1.674h.537c.958 0 1.211-1.095 1.211-1.674v-.246c3.638-.196 4.565-3.493 5.064-5.272l.045-.163c.5-1.77 2.828-3.74 5.372-3.74 1.954 0 3.729-1.65 4.316-3.245.438-1.193.228-2.293-.575-3.02-1.155-1.047-1.422-2.417-1.73-4.006zM13.554 1.626c0-.58.46-1.052 1.025-1.052h4.1c.565 0 1.024.472 1.024 1.052 0 .58-.459 1.052-1.025 1.052H14.58c-.565 0-1.025-.472-1.025-1.052zm1.025 1.818h4.1c.513 0 .93.429.93.956a.945.945 0 01-.93.957h-4.1a.945.945 0 01-.932-.957c0-.527.418-.956.932-.956zm-.546 2.584l.006-.006c.171.061.35.1.54.1h4.099c.128 0 .25-.018.37-.045.48.286 1.53 1.078 1.685 1.977.151.872-1.204 2.09-1.754 2.5a1.665 1.665 0 00-.301-.032h-4.099a1.6 1.6 0 00-.495.085c-.005-.005-.007-.012-.014-.016-.517-.374-1.96-1.643-1.804-2.537.198-1.139 1.751-2.017 1.767-2.026zm6.318 6.166c.001-.003.005-.006.007-.009.017-.033.442-.802 1.58-.802.384 0 .663.146.83.436.235.408.22 1.052-.037 1.532l-.06.109c-.532.994-1.265 2.352-.655 3.813.086.206.186.424.291.651.54 1.18 1.153 2.516.343 3.38-.424.453-.913.436-1.25.344-.844-.234-1.582-1.147-1.925-2.35.522-.293.88-.854.88-1.506a1.73 1.73 0 00-.691-1.387 1.73 1.73 0 00.691-1.387 1.73 1.73 0 00-.691-1.387 1.73 1.73 0 00.691-1.387c0-.017-.004-.034-.004-.05zm-5.772 1.867h4.099c.514 0 .932.429.932.956a.945.945 0 01-.932.957h-4.099a.945.945 0 01-.932-.957c0-.527.418-.956.932-.956zm-.932-1.818c0-.527.418-.956.932-.956h4.099c.514 0 .932.429.932.956a.945.945 0 01-.932.957h-4.099a.945.945 0 01-.932-.957zm.932 4.592h4.099c.514 0 .932.429.932.956a.945.945 0 01-.932.957h-4.099a.945.945 0 01-.932-.957c0-.527.418-.956.932-.956zm-.984-.43a1.73 1.73 0 00-.028 2.75c-.323 1.274-1.089 2.25-1.966 2.492-.337.093-.827.11-1.25-.343-.81-.864-.197-2.2.343-3.38.103-.227.203-.445.29-.651.61-1.46-.121-2.819-.656-3.813l-.06-.11c-.256-.479-.272-1.123-.036-1.531.168-.29.446-.436.828-.436 1.137 0 1.562.765 1.581.802.058.11.162.174.274.191.039.516.295.966.68 1.254a1.733 1.733 0 000 2.774zM15.02 30.31c-3.073-.188-3.84-2.905-4.346-4.713l-.047-.165c-.572-2.031-3.212-4.294-6.087-4.294-1.61 0-3.131-1.427-3.618-2.75-.19-.515-.394-1.484.37-2.176 1.345-1.216 1.649-2.777 1.97-4.43.18-.928.366-1.889.74-2.893.33-.879.913-1.466 1.736-1.746 1.192-.405 2.566-.057 3.12.305.913.596 2.216.798 2.66.854.077 1.16 1.317 2.277 1.877 2.724-.134.138-.24.3-.322.477-.303-.358-.924-.886-2.012-.886-.646 0-1.168.288-1.47.813-.365.635-.355 1.577.026 2.288l.06.112c.485.902 1.089 2.024.623 3.14-.083.199-.18.41-.28.628-.579 1.263-1.372 2.99-.205 4.235.386.414.885.631 1.42.631.183 0 .37-.025.56-.078.434-.12.844-.37 1.208-.716.164.86.66 2.577 2.018 3.1v5.54zm2.504-6.198a.383.383 0 00-.29.374v6.837c0 .01-.017.91-.466.91h-.537c-.448 0-.466-.9-.466-.908v-6.839a.382.382 0 00-.288-.374c-1.533-.363-1.806-2.986-1.809-3.011a.35.35 0 00-.064-.17 5.22 5.22 0 00.645-1.453c.108.022.218.034.33.034h4.1c.027 0 .053-.007.08-.009.15.53.366 1.012.637 1.429a.368.368 0 00-.063.169c-.003.027-.272 2.648-1.81 3.011zm14.555-5.724c-.487 1.323-2.01 2.75-3.62 2.75-2.873 0-5.513 2.262-6.087 4.294l-.045.164c-.507 1.808-1.274 4.526-4.348 4.714v-5.54c1.36-.524 1.853-2.24 2.02-3.1.363.346.774.596 1.207.716.19.052.377.078.56.078.535 0 1.033-.217 1.42-.631 1.166-1.245.373-2.973-.205-4.236-.1-.218-.197-.429-.28-.627-.466-1.117.137-2.24.622-3.14l.06-.112c.382-.712.392-1.653.025-2.289-.3-.524-.823-.813-1.47-.813-.917 0-1.5.378-1.844.712a1.755 1.755 0 00-.357-.41c.603-.502 1.673-1.54 1.744-2.617.445-.055 1.748-.257 2.66-.853.554-.362 1.928-.71 3.12-.305.824.28 1.408.867 1.735 1.746.376 1.004.562 1.965.742 2.893.32 1.653.624 3.213 1.968 4.43.767.692.562 1.66.373 2.176z" fill="#5B5D77"/></svg>