<svg width="29" height="33" fill="none" xmlns="http://www.w3.org/2000/svg"><path d="M20.794 33a.401.401 0 01-.396-.396c.132-2.937.264-5.973-.066-8.943-.396-3.3-1.386-6.072-2.937-8.25l-.132-.198c-.43-.594-.891-1.254-.957-2.046-.066-.825.33-1.65 1.056-2.244.132-.099 2.607-1.815 6.633-.627 1.485.43 2.706 1.32 3.465 2.541.165.264.297.495.363.726.43 1.221.43 2.74-.066 4.422a18.208 18.208 0 01-.726 2.145c-.231.627-.495 1.254-.66 1.914-.99 3.3-.759 6.831-.561 10.23 0 .198-.132.396-.363.396-.231 0-.396-.132-.396-.363-.198-3.3-.462-7.062.594-10.494.198-.66.462-1.32.693-1.947a22.1 22.1 0 00.726-2.079c.462-1.551.462-2.871.099-3.96a3.133 3.133 0 00-.297-.56c-.66-1.057-1.749-1.849-3.036-2.212-3.663-1.089-5.94.495-5.973.495-.495.396-.792 1.023-.759 1.551.033.594.43 1.089.825 1.65l.132.198c1.617 2.277 2.64 5.148 3.069 8.58.363 3.036.231 6.105.099 9.075-.066.23-.231.396-.43.396z" fill="#5B5D77"/><path d="M15.317 32.67a.386.386 0 01-.363-.297A28.278 28.278 0 0116.9 14.487a.4.4 0 01.494-.198c.198.099.265.33.198.495-2.507 5.412-3.2 11.616-1.88 17.424.033.198-.1.396-.297.462h-.1zm2.606-.198a.386.386 0 01-.363-.297c-1.122-4.686-.627-10.824 1.155-14.85.1-.198.297-.297.495-.198.198.1.297.297.198.495-1.716 3.927-2.178 9.834-1.122 14.388a.397.397 0 01-.297.462h-.066zm-.297-22.176a.407.407 0 01-.33-.165c-.759-1.188-1.419-1.75-1.419-1.75-1.518-1.187-3.63-1.913-6.072-2.078-2.013-.132-6.369.462-8.745.759l-.627.099c-.198.033-.396-.132-.429-.33-.033-.198.132-.396.33-.43l.627-.098c2.541-.33 6.798-.891 8.877-.76 2.574.166 4.819.958 6.501 2.245.033.032.76.627 1.584 1.947.1.165.066.429-.132.528 0 .033-.099.033-.165.033zm7.986 0h-.099c-.198-.066-.33-.264-.264-.462.132-.43.231-.825.33-1.188.561-2.046.76-2.739.462-3.927-.396-1.617-1.65-3.003-3.201-3.564C21.718.76 20.497.76 19.309.76H.399A.401.401 0 01.005.363C.004.165.202 0 .4 0h18.909c1.188 0 2.54 0 3.795.43 1.782.626 3.234 2.243 3.663 4.091.33 1.386.099 2.178-.462 4.323-.1.363-.198.726-.33 1.188-.066.165-.198.264-.363.264z" fill="#5B5D77"/></svg>