<svg width="35" height="30" fill="none" xmlns="http://www.w3.org/2000/svg"><path d="M34.166 30a30.998 30.998 0 00-.255-2.425c-.258-1.59-.02-5.57-.008-5.741.371-6.57-1.377-10.294-5.352-11.38l-.042-.012c-.063-.017-.121-.034-.175-.046l-.021-.005c-2.995-.864-5.273-2.454-6.408-4.467-1.21-2.144-.863-5.77-.847-5.924l.826.154c-.004.035-.317 3.306.68 5.067 1.014 1.796 3.112 3.231 5.912 4.043.075.017.141.034.208.057l.034.012c1.918.526 3.408 1.658 4.421 3.368 1.285 2.162 1.82 5.267 1.598 9.224-.067 1.104-.2 4.226-.008 5.404.096.59.188 1.47.271 2.55l-.834.121zm-7.892-.007c-.227-2.91-.013-4.86-.004-4.941l.827.207c0 .02-.202 1.867.013 4.59l-.836.144zM.83 30L0 29.88c.083-1.081.175-1.962.271-2.552.192-1.178.059-4.296-.008-5.4-.225-3.959.313-7.065 1.598-9.228 1.014-1.71 2.504-2.843 4.428-3.37l.041-.01c.046-.012.096-.03.146-.035 2.825-.813 4.945-2.254 5.96-4.062 1-1.768.684-5.034.68-5.069L13.941 0c.016.154.363 3.781-.848 5.927-1.139 2.025-3.434 3.615-6.463 4.485l-.025.005c-.046.012-.096.023-.146.04l-.05.012C2.461 11.567.725 15.292 1.096 21.842c.009.166.25 4.153-.008 5.738C1 28.118.908 28.982.829 30zm7.892 0l-.836-.145c.214-2.734.008-4.57.008-4.589l.828-.214c.012.082.227 2.037 0 4.948zm8.356-11.373h.84V29.92h-.84V18.627zm0-5.054h.84v2.584h-.84v-2.584z" fill="#5B5D77"/></svg>