<svg width="36" height="36" fill="none" xmlns="http://www.w3.org/2000/svg"><rect x=".5" y=".5" width="35" height="35" rx="1.5" stroke="#fff"/><path d="M18 15.656A2.348 2.348 0 0015.655 18 2.348 2.348 0 0018 20.343 2.348 2.348 0 0020.343 18a2.348 2.348 0 00-2.344-2.344zM25.026 18c0-.97.009-1.932-.046-2.9-.054-1.126-.31-2.124-1.133-2.947-.825-.824-1.822-1.08-2.947-1.134-.97-.054-1.931-.045-2.9-.045-.97 0-1.932-.01-2.9.045-1.125.055-2.124.312-2.946 1.134-.825.825-1.08 1.821-1.134 2.946-.055.97-.046 1.932-.046 2.9 0 .97-.009 1.933.046 2.901.054 1.125.311 2.123 1.134 2.946.824.825 1.82 1.08 2.946 1.134.97.054 1.932.046 2.9.046.97 0 1.932.008 2.9-.046 1.125-.055 2.124-.311 2.947-1.134.824-.824 1.079-1.821 1.133-2.946.057-.968.046-1.93.046-2.9zM18 21.605A3.6 3.6 0 0114.394 18 3.6 3.6 0 0118 14.394 3.6 3.6 0 0121.605 18a3.6 3.6 0 01-3.606 3.605zm3.753-6.516a.841.841 0 110-1.684.841.841 0 110 1.684z" fill="#C6C6D3"/></svg>