<svg width="36" height="36" fill="none" xmlns="http://www.w3.org/2000/svg"><rect x=".5" y=".5" width="35" height="35" rx="1.5" stroke="#fff"/><g clip-path="url(#clip0_402_311)"><path fill-rule="evenodd" clip-rule="evenodd" d="M26.587 13.461c.125-.41 0-.711-.596-.711h-1.968c-.502 0-.732.26-.858.547 0 0-1.001 2.397-2.42 3.954-.458.452-.667.595-.917.595-.125 0-.314-.143-.314-.553V13.46c0-.492-.138-.711-.555-.711h-3.096c-.313 0-.5.228-.5.445 0 .466.709.573.782 1.884v2.849c0 .625-.115.738-.366.738-.667 0-2.291-2.408-3.255-5.164-.186-.536-.375-.752-.879-.752h-1.97c-.563 0-.675.26-.675.547 0 .512.668 3.053 3.109 6.414 1.627 2.295 3.918 3.539 6.006 3.539 1.252 0 1.406-.276 1.406-.752v-1.735c0-.553.119-.663.515-.663.293 0 .793.144 1.961 1.25 1.335 1.312 1.555 1.9 2.307 1.9h1.969c.562 0 .844-.276.682-.822-.178-.543-.816-1.331-1.661-2.267-.46-.532-1.148-1.106-1.357-1.393-.292-.368-.209-.533 0-.86 0 0 2.4-3.32 2.65-4.447z" fill="#C6C6D3"/></g><defs><clipPath id="clip0_402_311"><path fill="#fff" transform="translate(9 9)" d="M0 0h18v18H0z"/></clipPath></defs></svg>