<svg width="36" height="36" fill="none" xmlns="http://www.w3.org/2000/svg"><rect x=".5" y=".5" width="35" height="35" rx="1.5" stroke="#fff"/><path d="M24.12 14.13c-2.16-3.33-6.57-4.32-9.99-2.25-3.33 2.07-4.41 6.57-2.25 9.9l.18.27-.72 2.7 2.7-.72.27.18c1.17.63 2.43.99 3.69.99 1.35 0 2.7-.36 3.87-1.08 3.33-2.16 4.32-6.57 2.25-9.99zm-1.89 6.93c-.36.54-.81.9-1.44.99-.36 0-.81.18-2.61-.54-1.53-.72-2.79-1.89-3.69-3.24-.54-.63-.81-1.44-.9-2.25 0-.72.27-1.35.72-1.8.18-.18.36-.27.54-.27h.45c.18 0 .36 0 .45.36.18.45.63 1.53.63 1.62.09.09.09.27 0 .36.09.18 0 .36-.09.45-.09.09-.18.27-.27.36-.18.09-.27.27-.18.45.36.54.81 1.08 1.26 1.53.54.45 1.08.81 1.71 1.08.18.09.36.09.45-.09.09-.18.54-.63.72-.81.18-.18.27-.18.45-.09l1.44.72c.18.09.36.18.45.27.09.27.09.63-.09.9z" fill="#C6C6D3"/></svg>