<svg width="36" height="36" fill="none" xmlns="http://www.w3.org/2000/svg"><rect x=".5" y=".5" width="35" height="35" rx="1.5" stroke="#fff"/><g clip-path="url(#clip0_402_316)" fill="#C6C6D3"><path d="M16.425 9h-1.013l-.675 2.588L14.063 9h-1.124c.224.675.45 1.238.675 1.912.337.9.562 1.688.562 2.138v2.7h1.012v-2.7L16.425 9zm2.7 5.063v-1.688c0-.563-.113-.9-.337-1.238-.226-.337-.563-.45-1.013-.45-.45 0-.787.226-1.012.563-.226.225-.338.563-.338 1.125v1.8c0 .563.113.9.337 1.125.226.337.563.45 1.013.45.45 0 .788-.225 1.013-.563.224-.112.337-.562.337-1.124zm-.9.224c0 .45-.113.675-.45.675s-.45-.224-.45-.675V12.15c0-.45.113-.675.45-.675.338 0 .45.225.45.675v2.137zM22.5 15.75v-5.063h-.9v3.825c-.225.338-.338.45-.563.45a.242.242 0 01-.224-.224v-4.05h-.9v3.937c0 .338 0 .563.112.787 0 .225.225.338.563.338.337 0 .674-.225 1.012-.563v.563h.9zm.45 5.063c-.337 0-.45.225-.45.675v.45h.9v-.45c0-.45-.112-.675-.45-.675zm-3.262 0c-.113 0-.338.112-.45.225v3.037c.112.113.337.225.45.225.225 0 .337-.225.337-.675v-2.137c0-.45-.112-.675-.337-.675z"/><path d="M25.2 18.338c-.225-.788-.9-1.463-1.575-1.463-1.8-.225-3.713-.225-5.625-.225-1.913 0-3.713 0-5.625.225-.675 0-1.35.675-1.575 1.463-.225 1.125-.225 2.362-.225 3.487s0 2.363.225 3.488c.225.787.787 1.35 1.575 1.462C14.287 27 16.087 27 18 27c1.912 0 3.712 0 5.625-.225.787-.112 1.462-.675 1.575-1.462.225-1.125.225-2.363.225-3.488s0-2.362-.225-3.487zM14.85 19.35h-1.125v5.738h-1.013V19.35H11.7v-1.012h3.15v1.012zm2.7 5.738h-.9v-.563c-.338.45-.675.563-1.013.563-.337 0-.45-.113-.562-.338 0-.112-.113-.337-.113-.787v-3.938h.9v3.938c0 .112.113.225.225.225.225 0 .338-.113.563-.45v-3.713h.9v5.063zm3.375-1.575c0 .45 0 .787-.113 1.012-.112.338-.337.563-.675.563-.337 0-.675-.225-.9-.563v.45h-.9v-6.637h.9v2.137c.338-.337.563-.562.9-.562.338 0 .563.225.675.562.113.225.113.563.113 1.013v2.025zm3.375-.788h-1.8v.9c0 .45.112.675.45.675.225 0 .337-.112.45-.337V23.4h.9v.675c0 .225-.113.338-.225.563-.225.337-.563.562-1.125.562-.45 0-.788-.225-1.125-.562-.225-.225-.338-.675-.338-1.125v-1.688c0-.562.113-.9.225-1.125.225-.337.563-.562 1.125-.562.45 0 .788.225 1.013.562.225.225.225.675.225 1.125v.9h.225z"/></g><defs><clipPath id="clip0_402_316"><path fill="#fff" transform="translate(9 9)" d="M0 0h18v18H0z"/></clipPath></defs></svg>